<svg xmlns="http://www.w3.org/2000/svg" viewBox="0 0 24 24" fill="white" width="24" height="24">
    <path d="M12 2.16c-3.18 0-3.584.013-4.844.07C5.18 2.24 4.345 2.49 3.673 3.16c-.672.67-.917 1.506-.93 2.506C2.643 6.9 2.63 7.324 2.63 12c0 4.676.013 5.1.07 6.344.013 1 .258 1.835.93 2.505.672.67 1.506.917 2.506.93C8.416 21.984 8.824 22 12 22s3.584-.016 4.844-.07c1-.013 1.834-.26 2.506-.93.67-.67.917-1.505.93-2.505.056-1.244.07-1.668.07-6.344 0-4.676-.013-5.1-.07-6.344-.013-1-.258-1.835-.93-2.506-.67-.67-1.506-.917-2.506-.93C15.584 2.173 15.176 2.16 12 2.16zm0 1.92c3.136 0 3.498.013 4.723.07.55.026.852.126 1.05.21.267.11.46.243.663.446.204.204.337.396.446.663.084.197.185.5.21 1.05.057 1.226.07 1.588.07 4.724 0 3.136-.013 3.498-.07 4.723-.025.55-.126.852-.21 1.05a1.86 1.86 0 0 1-.446.663c-.204.204-.396.337-.663.446-.197.084-.5.185-1.05.21-1.226.057-1.588.07-4.723.07s-3.498-.013-4.723-.07c-.55-.025-.852-.126-1.05-.21a1.86 1.86 0 0 1-.663-.446c-.204-.204-.337-.396-.446-.663-.084-.197-.185-.5-.21-1.05-.057-1.226-.07-1.588-.07-4.723 0-3.136.013-3.498.07-4.724.025-.55.126-.852.21-1.05.11-.267.243-.46.446-.663.204-.204.396-.337.663-.446.197-.084.5-.185 1.05-.21C8.502 4.093 8.864 4.08 12 4.08zm0 3.43a4.49 4.49 0 1 0 0 8.98 4.49 4.49 0 0 0 0-8.98zm0 1.92a2.57 2.57 0 1 1 0 5.14 2.57 2.57 0 0 1 0-5.14zm4.92-1.6a1.05 1.05 0 1 1 0 2.1 1.05 1.05 0 0 1 0-2.1z"/>
</svg>
