<svg xmlns="http://www.w3.org/2000/svg" viewBox="0 0 24 24" fill="white" width="24" height="24">
    <path d="M20.45 3H3.55C2.7 3 2 3.7 2 4.55v14.9C2 20.3 2.7 21 3.55 21h16.9c.85 0 1.55-.7 1.55-1.55V4.55C22 3.7 21.3 3 20.45 3zm-4.85 12h-2.6V12c0-.75-.02-1.75-1.06-1.75-1.07 0-1.24.83-1.24 1.7v3.05h-2.6V8.93h2.5v1.14h.03c.35-.66 1.21-1.36 2.49-1.36 2.67 0 3.16 1.76 3.16 4.05v3.24zM6.77 8.93h2.6v7.07h-2.6V8.93zm1.3-2.93c.83 0 1.5.67 1.5 1.5s-.67 1.5-1.5 1.5-1.5-.67-1.5-1.5.67-1.5 1.5-1.5z"/>
</svg>
