<svg xmlns="http://www.w3.org/2000/svg" viewBox="0 0 24 24" fill="white" width="24" height="24">
    <path d="M22.46 6c-.77.35-1.6.58-2.46.68.88-.53 1.56-1.37 1.88-2.37-.82.49-1.73.85-2.7 1.04-.78-.84-1.87-1.36-3.09-1.36-2.34 0-4.24 1.9-4.24 4.25 0 .33.04.66.11.97C7.69 9.91 5.36 8.52 3.68 6.49c-.37.64-.58 1.39-.58 2.2 0 1.52.77 2.87 1.95 3.66-.71-.02-1.38-.22-1.97-.54v.05c0 2.12 1.5 3.89 3.5 4.29-.37.1-.75.15-1.15.15-.28 0-.55-.03-.82-.08.56 1.75 2.16 3.03 4.06 3.07-1.49 1.16-3.35 1.85-5.38 1.85-.35 0-.7-.02-1.04-.06C2.9 20.8 5.31 22 8 22c9.04 0 13.98-7.49 13.98-13.99 0-.21-.01-.43-.02-.64C21.23 7.6 21.92 6.83 22.46 6z"/>
</svg>
