<?xml version="1.0" encoding="UTF-8"?>
<svg version="1.1" xmlns="http://www.w3.org/2000/svg" width="88" height="96">
<path d="M0 0 C3 0.5625 3 0.5625 5.26953125 2.5859375 C8.68892986 5.06121031 10.52443958 4.95411813 14.6875 4.75 C20.85788924 4.49144462 20.85788924 4.49144462 23 5.5625 C23.68856776 10.93332853 21.90329217 13.86347768 19.24609375 18.3046875 C17.57646029 21.32991678 16.78477983 24.20934984 16 27.5625 C17.093125 26.9025 18.18625 26.2425 19.3125 25.5625 C24.45836904 22.98956548 29.34835019 22.79422885 35 23.5625 C38.1875 25.0625 38.1875 25.0625 40 26.5625 C39.67 27.8825 39.34 29.2025 39 30.5625 C36.36 30.2325 33.72 29.9025 31 29.5625 C32.4540625 30.42875 32.4540625 30.42875 33.9375 31.3125 C37 33.5625 37 33.5625 37.875 35.8125 C37.91625 36.39 37.9575 36.9675 38 37.5625 C36.4375 38.3125 36.4375 38.3125 34 38.5625 C31.54271852 37.40774189 29.32246857 35.98178635 27 34.5625 C26.34 34.5625 25.68 34.5625 25 34.5625 C25.74443359 35.09037109 25.74443359 35.09037109 26.50390625 35.62890625 C36.27827001 42.73247612 44.79715684 51.047446 47 63.5625 C47.74748488 72.60584166 47.44802325 81.12346639 41.4921875 88.40625 C33.60498787 95.88991849 22.62664874 96.71335997 12.23046875 96.73046875 C11.14890251 96.73546135 11.14890251 96.73546135 10.04548645 96.74055481 C8.52862174 96.74558694 7.0117461 96.74796429 5.49487305 96.74780273 C3.20407381 96.74998422 0.91376091 96.76816565 -1.37695312 96.78710938 C-13.55847482 96.83530121 -25.89968078 96.42974955 -35.66796875 88.1484375 C-41.21670334 82.06272859 -41.46605015 74.73349044 -41.3046875 66.8984375 C-40.31783936 56.09371559 -34.56900499 46.72631512 -26.69140625 39.421875 C-22.70599215 36.22279049 -18.68352131 33.60403493 -14 31.5625 C-15.05380232 25.12259695 -17.19048507 21.59271361 -21.5390625 16.73828125 C-23.31071951 14.09974395 -23.44482256 12.68143029 -23 9.5625 C-20.30658429 6.86908429 -18.43926708 7.1366487 -14.6875 6.75 C-8.09967152 5.85955725 -5.71578104 1.07170894 0 0 Z M-3.625 8 C-7.33917611 11.32024834 -11.17395296 11.44452996 -16 11.5625 C-14.48052501 14.92998512 -13.47899158 16.17090337 -10 17.5625 C-9.13375 16.9025 -8.2675 16.2425 -7.375 15.5625 C-3.75125073 13.41509302 -2.1167938 12.92210985 2 13.5625 C3 14.5625 4 15.5625 5 16.5625 C8.78299436 16.5625 9.98643873 15.57485583 12.8125 13 C13.8953125 11.7934375 13.8953125 11.7934375 15 10.5625 C14.31292969 10.45292969 13.62585938 10.34335938 12.91796875 10.23046875 C12.01691406 10.07191406 11.11585937 9.91335937 10.1875 9.75 C9.29417969 9.59917969 8.40085937 9.44835937 7.48046875 9.29296875 C4.76676264 8.49381435 3.90689001 7.5568119 2 5.5625 C-1.23063367 5.22227445 -1.23063367 5.22227445 -3.625 8 Z M-6.125 20.0625 C-7.40375 20.8875 -8.6825 21.7125 -10 22.5625 C-9.34 25.8625 -8.68 29.1625 -8 32.5625 C-4.96478606 33.57423798 -2.80266921 33.72823514 0.375 33.75 C1.31085937 33.76417969 2.24671875 33.77835938 3.2109375 33.79296875 C6.46141122 33.66181352 6.46141122 33.66181352 11 31.5625 C11.33 27.9325 11.66 24.3025 12 20.5625 C9.75390625 20.66015625 7.5078125 20.7578125 5.26171875 20.85546875 C2.49291259 20.4968151 1.81639042 19.59195675 0 17.5625 C-2.67550292 17.5625 -3.89044641 18.62085252 -6.125 20.0625 Z M10.5625 36.5625 C4.1358775 38.36646421 -2.69112308 38.13258585 -9.1875 36.6875 C-14.82783361 36.50257103 -17.770424 39.0582123 -22 42.5625 C-22.63164062 43.08199219 -23.26328125 43.60148437 -23.9140625 44.13671875 C-30.45661348 50.08842261 -35.46332001 58.40387715 -36.23828125 67.296875 C-36.40170172 73.93690689 -36.14149305 79.16680085 -32 84.5625 C-23.7358313 92.40286517 -9.7822879 92.05292678 0.93847656 91.95361328 C2.99871979 91.93751001 5.0570026 91.9535714 7.1171875 91.97265625 C18.25332623 91.99060731 30.56600351 91.62980099 39 83.5625 C42.75331732 77.62983713 42.77379533 71.43872667 42 64.5625 C39.21398661 53.18627866 31.5073572 44.95269091 22 38.5625 C16.52602393 35.38763161 16.52602393 35.38763161 10.5625 36.5625 Z " fill="#002D82" transform="translate(41,-0.5625)"/>
<path d="M0 0 C1.15757813 -0.00128906 2.31515625 -0.00257812 3.5078125 -0.00390625 C5.32925781 0.00189453 5.32925781 0.00189453 7.1875 0.0078125 C9.00894531 0.00201172 9.00894531 0.00201172 10.8671875 -0.00390625 C12.60355469 -0.00197266 12.60355469 -0.00197266 14.375 0 C15.44105469 0.00112793 16.50710937 0.00225586 17.60546875 0.00341797 C20.1875 0.1328125 20.1875 0.1328125 22.1875 1.1328125 C22.1875 2.4528125 22.1875 3.7728125 22.1875 5.1328125 C19.23085481 6.6111351 16.44520263 6.19314033 13.1875 6.1328125 C13.1875 7.1228125 13.1875 8.1128125 13.1875 9.1328125 C15.8275 9.1328125 18.4675 9.1328125 21.1875 9.1328125 C21.75 11.0703125 21.75 11.0703125 22.1875 13.1328125 C21.1875 14.1328125 21.1875 14.1328125 19.33984375 14.23046875 C17.2890625 14.19791667 15.23828125 14.16536458 13.1875 14.1328125 C12.94 14.8959375 12.6925 15.6590625 12.4375 16.4453125 C11.02367937 19.48502685 10.09669965 20.51659047 7.1875 22.1328125 C5.1934161 22.49988267 3.19337279 22.83686406 1.1875 23.1328125 C2.39599609 24.36257812 2.39599609 24.36257812 3.62890625 25.6171875 C4.66992729 26.70510138 5.71025628 27.79367779 6.75 28.8828125 C7.28302734 29.42164062 7.81605469 29.96046875 8.36523438 30.515625 C9.87890625 32.1171875 9.87890625 32.1171875 12.1875 35.1328125 C11.83178711 37.32128906 11.83178711 37.32128906 11.1875 39.1328125 C3.48277884 37.7761116 -1.64724997 29.10283818 -6.40625 23.46484375 C-7.8125 21.1328125 -7.8125 21.1328125 -7.53125 18.83203125 C-7.2940625 18.27128906 -7.056875 17.71054687 -6.8125 17.1328125 C-5.96945313 17.07222656 -5.12640625 17.01164062 -4.2578125 16.94921875 C-3.16210938 16.86542969 -2.06640625 16.78164063 -0.9375 16.6953125 C0.15304688 16.61410156 1.24359375 16.53289063 2.3671875 16.44921875 C5.13478971 16.30279547 5.13478971 16.30279547 7.1875 15.1328125 C0.2575 14.6378125 0.2575 14.6378125 -6.8125 14.1328125 C-7.1425 12.8128125 -7.4725 11.4928125 -7.8125 10.1328125 C-5.87159174 8.19190424 -2.33956098 8.73361815 0.25 8.5703125 C2.18552734 8.44462891 2.18552734 8.44462891 4.16015625 8.31640625 C5.15917969 8.25582031 6.15820312 8.19523437 7.1875 8.1328125 C5.39755262 6.34286512 2.67540444 6.79431387 0.25 6.6328125 C-5.59241747 6.24285377 -5.59241747 6.24285377 -7.8125 5.1328125 C-7.8125 3.8128125 -7.8125 2.4928125 -7.8125 1.1328125 C-5.11984639 -0.2135143 -3.01135751 0.00318614 0 0 Z " fill="#002D82" transform="translate(34.8125,44.8671875)"/>
</svg>
