<?xml version="1.0" encoding="UTF-8"?>
<svg version="1.1" xmlns="http://www.w3.org/2000/svg" width="104" height="104">
<path d="M0 0 C3.56956453 1.50297454 7.00010315 3.21767927 10.4375 5 C11.39946289 5.49040771 12.36142578 5.98081543 13.35253906 6.48608398 C36.2391093 18.2391093 36.2391093 18.2391093 40 22 C40.54587156 28.00458716 40.54587156 28.00458716 38.9375 30.9375 C35.98831309 32.55479605 33.29132441 32.18630138 30 32 C30 35.3 30 38.6 30 42 C28.02 41.505 28.02 41.505 26 41 C26 40.34 26 39.68 26 39 C22.04 39 18.08 39 14 39 C14 39.66 14 40.32 14 41 C15.65 41.33 17.3 41.66 19 42 C19 42.99 19 43.98 19 45 C19.9590625 44.505 19.9590625 44.505 20.9375 44 C26.57178373 42.16023388 31.80615827 42.15520413 37.25 44.625 C42.2948826 47.45897788 45.80436396 51.6231313 48 57 C48.23046875 59.62109375 48.23046875 59.62109375 48.1875 62.4375 C48.18105469 63.36433594 48.17460938 64.29117188 48.16796875 65.24609375 C48 68 48 68 47.2109375 70.57421875 C47.14132813 71.37472656 47.07171875 72.17523438 47 73 C48.8634884 75.3268367 48.8634884 75.3268367 51.4375 77.375 C55.92051357 81.54475951 55.92051357 81.54475951 56.6875 85.9375 C56 89 56 89 54 91 C50.37182756 91.07114064 47.93093788 90.74774127 45.0546875 88.4375 C43.30059182 86.676065 41.63691076 84.87013815 40 83 C39.34 82.34 38.68 81.68 38 81 C36.7315625 81.495 36.7315625 81.495 35.4375 82 C28.74366973 83.94729608 23.08198418 83.24293297 17 80 C14.51298108 78.1488666 12.22924221 76.15261201 10 74 C9.67 74.33 9.34 74.66 9 75 C7.64041146 75.11344705 6.27508989 75.15950129 4.91088867 75.17700195 C4.04296188 75.18983719 3.1750351 75.20267242 2.2808075 75.21589661 C1.33607071 75.22328354 0.39133392 75.23067047 -0.58203125 75.23828125 C-1.54775558 75.246353 -2.51347992 75.25442474 -3.50846863 75.26274109 C-5.55714106 75.27660016 -7.60583676 75.28731412 -9.65454102 75.29516602 C-12.78901975 75.31237112 -15.92244197 75.35624003 -19.05664062 75.40039062 C-21.04426305 75.41051771 -23.03189448 75.41903376 -25.01953125 75.42578125 C-26.42752739 75.45204338 -26.42752739 75.45204338 -27.8639679 75.47883606 C-31.67720209 75.46612112 -34.24403127 75.42722493 -37.59936523 73.53100586 C-39.69989086 69.73526781 -39.4964878 66.34661618 -39.390625 62.078125 C-39.38496521 61.21813904 -39.37930542 60.35815308 -39.37347412 59.47210693 C-39.35111951 56.73083351 -39.30092602 53.99087696 -39.25 51.25 C-39.22993376 49.38934182 -39.21168321 47.52866311 -39.1953125 45.66796875 C-39.15125784 41.11147334 -39.08223754 36.55595978 -39 32 C-40.42699219 32.03287109 -40.42699219 32.03287109 -41.8828125 32.06640625 C-45 32 -45 32 -46.875 30.9375 C-48.68953275 27.81247137 -48.49493962 25.52644482 -48 22 C-44.65225317 18.86006269 -40.99356199 16.79701232 -36.921875 14.72265625 C-35.76042969 14.12646484 -34.59898438 13.53027344 -33.40234375 12.91601562 C-32.18503845 12.29789613 -30.96758967 11.68005914 -29.75 11.0625 C-27.3685899 9.84738341 -24.988951 8.62886727 -22.609375 7.41015625 C-21.47306641 6.83410645 -20.33675781 6.25805664 -19.16601562 5.66455078 C-16.39174776 4.20596362 -13.74740411 2.63467794 -11.078125 0.99609375 C-6.96237492 -1.27630517 -4.60757797 -1.44394174 0 0 Z M-13.21875 7.0859375 C-14.03243042 7.50291901 -14.84611084 7.91990051 -15.68444824 8.34951782 C-17.40702969 9.23362406 -19.12855995 10.11978094 -20.84912109 11.0078125 C-23.48625674 12.36791193 -26.1276054 13.71954601 -28.76953125 15.0703125 C-30.44036458 15.92918108 -32.11094606 16.78853983 -33.78125 17.6484375 C-34.57398315 18.05371674 -35.36671631 18.45899597 -36.18347168 18.8765564 C-36.91763306 19.25679962 -37.65179443 19.63704285 -38.40820312 20.02880859 C-39.05503052 20.36190033 -39.70185791 20.69499207 -40.36828613 21.03817749 C-42.18288185 22.01615845 -42.18288185 22.01615845 -44 24 C-43.6814823 26.10820797 -43.6814823 26.10820797 -43 28 C-39.33014385 27.40306615 -36.3991416 26.38238851 -33.0859375 24.70703125 C-31.70426392 24.01226685 -31.70426392 24.01226685 -30.29467773 23.3034668 C-28.84943726 22.56543823 -28.84943726 22.56543823 -27.375 21.8125 C-25.89592163 21.06963745 -25.89592163 21.06963745 -24.38696289 20.31176758 C-18.48870242 17.33313873 -12.71672246 14.25014752 -7.12109375 10.73046875 C-3.58909308 9.51410756 -0.79901336 11.62164179 2.44433594 13.1574707 C3.28254883 13.57601318 4.12076172 13.99455566 4.984375 14.42578125 C6.38816406 15.12670898 6.38816406 15.12670898 7.8203125 15.84179688 C8.78710938 16.32712891 9.75390625 16.81246094 10.75 17.3125 C11.70132813 17.78623047 12.65265625 18.25996094 13.6328125 18.74804688 C18.87526147 21.37286208 23.97094591 24.08464141 28.93847656 27.20385742 C31.61622839 28.23798209 33.28230354 27.76342779 36 27 C35.84786772 25.07707451 35.84786772 25.07707451 35 23 C32.9826125 21.46911941 32.9826125 21.46911941 30.3984375 20.265625 C29.4396167 19.77739258 28.4807959 19.28916016 27.49291992 18.78613281 C25.94954956 18.02574707 25.94954956 18.02574707 24.375 17.25 C22.27438372 16.18820373 20.17412391 15.12570196 18.07421875 14.0625 C17.04087402 13.54429688 16.0075293 13.02609375 14.94287109 12.4921875 C10.35842532 10.16763693 5.84646218 7.71288679 1.34326172 5.23535156 C-4.75277747 1.93414468 -7.36046581 4.06101295 -13.21875 7.0859375 Z M-11.50390625 17.24609375 C-12.14238998 17.57666275 -12.78087372 17.90723175 -13.43870544 18.24781799 C-14.78883141 18.94787376 -16.13793262 19.64990886 -17.48608398 20.35375977 C-19.55542172 21.43380565 -21.62798826 22.5074363 -23.70117188 23.58007812 C-25.01061179 24.26004103 -26.31986309 24.94036732 -27.62890625 25.62109375 C-28.25181046 25.94403915 -28.87471466 26.26698456 -29.51649475 26.59971619 C-32.44757415 28.02558613 -32.44757415 28.02558613 -35 30 C-35 31.65 -35 33.3 -35 35 C-29.72 35.33 -24.44 35.66 -19 36 C-19 44.25 -19 52.5 -19 61 C-26.92 61.495 -26.92 61.495 -35 62 C-35 64.64 -35 67.28 -35 70 C-34.00516798 71.21643292 -34.00516798 71.21643292 -32.05053711 71.11352539 C-30.8015564 71.10567017 -30.8015564 71.10567017 -29.52734375 71.09765625 C-28.31292603 71.09390991 -28.31292603 71.09390991 -27.07397461 71.09008789 C-26.03893799 71.08098389 -25.00390137 71.07187988 -23.9375 71.0625 C-19.0184375 71.0315625 -19.0184375 71.0315625 -14 71 C-14 63.41 -14 55.82 -14 48 C-7.4 48 -0.8 48 6 48 C6 55.59 6 63.18 6 71 C7.32 71 8.64 71 10 71 C9.90460937 70.443125 9.80921875 69.88625 9.7109375 69.3125 C8.79121675 62.98139904 8.5810814 57.42287089 12.40234375 52.015625 C14.48722882 49.54842605 16.71711114 47.28288886 19 45 C17.35 45 15.7 45 14 45 C13.67 45.99 13.34 46.98 13 48 C12.34 48 11.68 48 11 48 C10.67 43.71 10.34 39.42 10 35 C15.28 35 20.56 35 26 35 C26 33.02 26 31.04 26 29 C21.90926712 26.8585731 17.81581524 24.72247318 13.71972656 22.59130859 C12.32605774 21.86523637 10.93314944 21.13770244 9.54101562 20.40869141 C7.54233755 19.36237489 5.54100253 18.32130873 3.5390625 17.28125 C2.91504547 16.95314331 2.29102844 16.62503662 1.64810181 16.2869873 C-4.07660294 13.32516251 -6.02933582 14.38069427 -11.50390625 17.24609375 Z M-35 39 C-35 45.27 -35 51.54 -35 58 C-30.71 58 -26.42 58 -22 58 C-22 53.71 -22 49.42 -22 45 C-25.96 45 -29.92 45 -34 45 C-33.67 44.01 -33.34 43.02 -33 42 C-27.555 41.505 -27.555 41.505 -22 41 C-22 40.34 -22 39.68 -22 39 C-26.29 39 -30.58 39 -35 39 Z M15.60546875 52.47265625 C12.41030255 57.24847003 12.08684052 62.41958094 13 68 C15.18658613 72.37317227 17.82654097 75.43901378 22 78 C28.00252897 79.47603171 32.61698401 79.20910569 38 76 C42.11850114 72.25868832 43.88411412 68.76725973 44.25 63.1875 C44.16357285 58.46857777 42.96410765 54.98557331 39.5703125 51.5546875 C36.05462145 48.49376246 33.45693945 47.1428372 28.8125 46.6875 C23.54689288 47.11910714 19.30691707 48.56384387 15.60546875 52.47265625 Z M-10 52 C-10 58.27 -10 64.54 -10 71 C-6.04 71 -2.08 71 2 71 C2 64.73 2 58.46 2 52 C-1.96 52 -5.92 52 -10 52 Z M43 76 C42.01 77.485 42.01 77.485 41 79 C42.26572233 80.15147661 43.53777906 81.29599314 44.8125 82.4375 C45.52019531 83.07558594 46.22789063 83.71367188 46.95703125 84.37109375 C48.99896152 86.19086012 48.99896152 86.19086012 52 87 C51.42703238 83.40303663 50.10347171 81.74677205 47.5 79.25 C46.8709375 78.63640625 46.241875 78.0228125 45.59375 77.390625 C44.22694382 75.89042367 44.22694382 75.89042367 43 76 Z " fill="#002D82" transform="translate(48,7)"/>
<path d="M0 0 C3.68190518 3.14496068 5.23912075 5.79998547 6 10.5 C6.23693232 14.7719616 5.5509741 17.46155206 3 21 C-1.10263318 24.71190621 -4.44085808 25.64935205 -9.8203125 25.38671875 C-14.33091766 24.58645009 -17.02202415 22.17357102 -19.875 18.75 C-21.36637686 15.10441212 -21.68604454 11.84486501 -21 8 C-18.6571577 3.56533423 -16.04107923 0.0029775 -11.15234375 -1.609375 C-7.2194481 -2.32314916 -3.6906107 -1.4209838 0 0 Z M-16 7 C-17.14888518 10.94929279 -17.43129396 13.02958859 -15.75 16.8125 C-13.25367098 19.93291127 -11.60213649 20.92194527 -7.625 21.4375 C-3.89782693 21.29032263 -3.89782693 21.29032263 -1.125 18.875 C1.26814883 15.6372104 2.08209148 14.02248275 2 10 C-0.24721141 5.7579186 -0.24721141 5.7579186 -4 3 C-9.40684953 2.48991986 -12.34957728 2.81275041 -16 7 Z " fill="#002D82" transform="translate(84,58)"/>
<path d="M0 0 C6.6 0 13.2 0 20 0 C20 3.3 20 6.6 20 10 C13.4 10 6.8 10 0 10 C0 6.7 0 3.4 0 0 Z M4 4 C4 4.66 4 5.32 4 6 C7.96 6 11.92 6 16 6 C16 5.34 16 4.68 16 4 C12.04 4 8.08 4 4 4 Z " fill="#002D82" transform="translate(34,42)"/>
</svg>
