<?xml version="1.0" encoding="UTF-8"?>
<svg version="1.1" xmlns="http://www.w3.org/2000/svg" width="104" height="104">
<path d="M0 0 C3.0855395 1.44296025 5.10395366 2.48336009 7.0390625 5.3515625 C8.45082458 7.4459187 8.45082458 7.4459187 10.8125 7.671875 C11.63363281 7.67316406 12.45476562 7.67445312 13.30078125 7.67578125 C19.97693865 8.0948685 24.21420981 10.73114353 28.78125 15.50390625 C30.94304384 18.73046423 31.22307188 20.89555219 31.55078125 24.73828125 C32.2475475 30.26264222 33.10074999 32.71630563 37.61328125 36.23828125 C41.09224444 40.31706568 41.11509513 44.28142002 40.96875 49.4453125 C40.4456093 53.55570371 39.13281767 56.94111013 36.61328125 60.23828125 C35.92363281 60.67785156 35.23398438 61.11742187 34.5234375 61.5703125 C31.7883756 63.95859763 32.04690906 65.86735709 31.80078125 69.42578125 C30.95370206 76.20241474 28.88893808 79.93445595 23.61328125 84.23828125 C20.31184994 86.29052233 17.40879791 86.31531345 13.61328125 86.55078125 C9.77570603 86.86347256 8.86474615 87.02593311 5.80078125 89.61328125 C5.07890625 90.47953125 4.35703125 91.34578125 3.61328125 92.23828125 C-0.46550318 95.71724444 -4.42985752 95.74009513 -9.59375 95.59375 C-13.70414121 95.0706093 -17.08954763 93.75781767 -20.38671875 91.23828125 C-20.85722656 90.54089844 -21.32773437 89.84351562 -21.8125 89.125 C-23.22426208 87.0306438 -23.22426208 87.0306438 -25.5859375 86.8046875 C-26.40707031 86.80339844 -27.22820313 86.80210938 -28.07421875 86.80078125 C-34.75037615 86.381694 -38.98764731 83.74541897 -43.5546875 78.97265625 C-45.71648134 75.74609827 -45.99650938 73.58101031 -46.32421875 69.73828125 C-47.020985 64.21392028 -47.87418749 61.76025687 -52.38671875 58.23828125 C-55.86568194 54.15949682 -55.88853263 50.19514248 -55.7421875 45.03125 C-55.2190468 40.92085879 -53.90625517 37.53545237 -51.38671875 34.23828125 C-50.69707031 33.79871094 -50.00742187 33.35914063 -49.296875 32.90625 C-46.5618131 30.51796487 -46.82034656 28.60920541 -46.57421875 25.05078125 C-45.72713956 18.27414776 -43.66237558 14.54210655 -38.38671875 10.23828125 C-35.08528744 8.18604017 -32.18223541 8.16124905 -28.38671875 7.92578125 C-24.54914353 7.61308994 -23.63818365 7.45062939 -20.57421875 4.86328125 C-19.85234375 3.99703125 -19.13046875 3.13078125 -18.38671875 2.23828125 C-13.29272027 -2.10659981 -6.17398482 -1.97042069 0 0 Z M-17.38671875 8.23828125 C-19.79897182 11.43172765 -19.79897182 11.43172765 -20.38671875 15.23828125 C-21.04671875 14.88765625 -21.70671875 14.53703125 -22.38671875 14.17578125 C-26.2726522 12.96142705 -29.53472213 13.0698674 -33.38671875 14.23828125 C-36.59473823 16.06438465 -38.82727541 18.3626308 -40.82421875 21.48828125 C-41.64667027 25.50915536 -41.03502714 29.21701703 -40.38671875 33.23828125 C-41.47984375 33.93953125 -42.57296875 34.64078125 -43.69921875 35.36328125 C-47.22713994 37.92513883 -49.07179296 39.96477245 -50.38671875 44.23828125 C-50.57208611 48.79187074 -50.01820302 52.20084281 -47.63671875 56.11328125 C-45.36064185 58.26290944 -43.15036788 59.77968865 -40.38671875 61.23828125 C-40.49371094 61.81835938 -40.60070313 62.3984375 -40.7109375 62.99609375 C-41.53184716 68.34524701 -41.61474228 71.61144752 -38.38671875 76.23828125 C-34.66341415 80.06501098 -31.67956594 80.95473586 -26.38671875 81.23828125 C-23.57434334 80.8785323 -23.57434334 80.8785323 -21.38671875 80.23828125 C-20.68546875 81.33140625 -19.98421875 82.42453125 -19.26171875 83.55078125 C-16.69986117 87.07870244 -14.66022755 88.92335546 -10.38671875 90.23828125 C-5.84102742 90.42332709 -2.40804793 89.82500227 1.55078125 87.55078125 C3.91942674 84.89502721 4.75617708 82.66669793 5.61328125 79.23828125 C6.27328125 79.58890625 6.93328125 79.93953125 7.61328125 80.30078125 C11.4992147 81.51513545 14.76128463 81.4066951 18.61328125 80.23828125 C21.82130073 78.41217785 24.05383791 76.1139317 26.05078125 72.98828125 C26.87323277 68.96740714 26.26158964 65.25954547 25.61328125 61.23828125 C26.70640625 60.53703125 27.79953125 59.83578125 28.92578125 59.11328125 C32.45370244 56.55142367 34.29835546 54.51179005 35.61328125 50.23828125 C35.79864861 45.68469176 35.24476552 42.27571969 32.86328125 38.36328125 C30.58720435 36.21365306 28.37693038 34.69687385 25.61328125 33.23828125 C25.72027344 32.65820312 25.82726562 32.078125 25.9375 31.48046875 C26.75840966 26.13131549 26.84130478 22.86511498 23.61328125 18.23828125 C19.88997665 14.41155152 16.90612844 13.52182664 11.61328125 13.23828125 C8.80090584 13.5980302 8.80090584 13.5980302 6.61328125 14.23828125 C5.91203125 13.14515625 5.21078125 12.05203125 4.48828125 10.92578125 C1.96879618 7.41979358 -0.22936512 5.68062843 -4.38671875 4.23828125 C-9.63935927 3.45597309 -13.30801624 5.03505781 -17.38671875 8.23828125 Z " fill="#002D82" transform="translate(59.38671875,4.76171875)"/>
<path d="M0 0 C1.32 0.66 2.64 1.32 4 2 C2.36221955 6.19625909 -0.73323182 8.98676785 -3.8828125 12.078125 C-4.45707977 12.64956238 -5.03134705 13.22099976 -5.62301636 13.80975342 C-7.4523581 15.62792945 -9.28854193 17.43901492 -11.125 19.25 C-12.36894774 20.48391329 -13.6124427 21.71828322 -14.85546875 22.953125 C-17.89842367 25.97406743 -20.94753254 28.98867092 -24 32 C-28.22897154 30.05413669 -31.03527128 27.36724052 -34.3125 24.125 C-34.87517578 23.59519531 -35.43785156 23.06539062 -36.01757812 22.51953125 C-37.61328125 20.9453125 -37.61328125 20.9453125 -40 18 C-39.64916992 15.81591797 -39.64916992 15.81591797 -39 14 C-35 14 -35 14 -32.421875 16.1875 C-31.54015625 17.115625 -30.6584375 18.04375 -29.75 19 C-28.85796875 19.928125 -27.9659375 20.85625 -27.046875 21.8125 C-26.37140625 22.534375 -25.6959375 23.25625 -25 24 C-19.19108254 19.18132753 -13.86934448 13.98743592 -8.5625 8.625 C-7.32209961 7.37783203 -7.32209961 7.37783203 -6.05664062 6.10546875 C-4.03544469 4.0725896 -2.01663665 2.03740037 0 0 Z " fill="#002D83" transform="translate(70,37)"/>
</svg>
