<?xml version="1.0" encoding="UTF-8"?>
<svg version="1.1" xmlns="http://www.w3.org/2000/svg" width="104" height="104">
<path d="M0 0 C5.28 0 10.56 0 16 0 C18.28571429 9.57142857 18.28571429 9.57142857 18 14 C23.34628845 15.41201291 23.34628845 15.41201291 28.39453125 13.6953125 C29.93371916 12.58750561 31.44518974 11.43984712 32.921875 10.25 C35 9 35 9 36.99609375 9.07421875 C39.58977354 10.27246848 41.27888385 11.80862595 43.3125 13.8125 C44.03050781 14.49957031 44.74851562 15.18664063 45.48828125 15.89453125 C47 18 47 18 46.89453125 20.02734375 C45.92782105 22.15917191 44.76603552 23.86938214 43.375 25.75 C41.31052713 28.89699016 40.6891016 30.75204401 41.1875 34.5 C41.5896875 36.2325 41.5896875 36.2325 42 38 C43.13888672 38.09087891 43.13888672 38.09087891 44.30078125 38.18359375 C45.29464844 38.26738281 46.28851563 38.35117187 47.3125 38.4375 C48.29863281 38.51871094 49.28476563 38.59992187 50.30078125 38.68359375 C53 39 53 39 56 40 C56 45.28 56 50.56 56 56 C54.35 56.33 52.7 56.66 51 57 C49.68 55.35 48.36 53.7 47 52 C48.32 52 49.64 52 51 52 C51 49.36 51 46.72 51 44 C50.24074219 43.96261719 49.48148437 43.92523438 48.69921875 43.88671875 C47.70535156 43.82097656 46.71148437 43.75523438 45.6875 43.6875 C44.20830078 43.60048828 44.20830078 43.60048828 42.69921875 43.51171875 C39.68397398 42.94008769 38.81452641 42.41371582 37 40 C35.31612771 36.752532 34 34.19342948 34 30.5 C35.43387885 26.91530287 37.63414138 24.02934665 40 21 C39.01 19.02 39.01 19.02 38 17 C33.78582541 17 33.53783901 17.05308235 30.625 19.5625 C28.02198425 21.51753098 27.37219747 22 24 22 C23.01 21.67 22.02 21.34 21 21 C19.7625 20.62875 18.525 20.2575 17.25 19.875 C14 18 14 18 12.5625 14.6875 C12.05696043 11.37340728 11.83690828 8.34338031 12 5 C9.36 5 6.72 5 4 5 C3.96261719 5.75925781 3.92523438 6.51851562 3.88671875 7.30078125 C3.82097656 8.29464844 3.75523438 9.28851563 3.6875 10.3125 C3.60048828 11.79169922 3.60048828 11.79169922 3.51171875 13.30078125 C2.94008769 16.31602602 2.41371582 17.18547359 0 19 C-3.247468 20.68387229 -5.80657052 22 -9.5 22 C-13.08469713 20.56612115 -15.97065335 18.36585862 -19 16 C-20.98 16.99 -20.98 16.99 -23 18 C-23 22.20591171 -22.92743991 22.49977799 -20.4375 25.4375 C-18 28.6967068 -18 28.6967068 -18 31.4375 C-18.33 32.283125 -18.66 33.12875 -19 34 C-19.15597656 34.66515625 -19.31195312 35.3303125 -19.47265625 36.015625 C-20.08874555 38.28413926 -20.70535825 40.03373522 -22 42 C-25.96901251 44.10934504 -30.57641496 44.27647406 -35 44 C-35 46.64 -35 49.28 -35 52 C-34.22914062 52.06058594 -33.45828125 52.12117188 -32.6640625 52.18359375 C-31.66117188 52.26738281 -30.65828125 52.35117187 -29.625 52.4375 C-28.62726562 52.51871094 -27.62953125 52.59992187 -26.6015625 52.68359375 C-24 53 -24 53 -22 54 C-19.86745812 57.64717411 -18.03885719 61.36799785 -17.9375 65.625 C-19.49016994 69.09567399 -21.66680632 72.01247894 -24 75 C-23.34 76.32 -22.68 77.64 -22 79 C-17.79408829 79 -17.50022201 78.92743991 -14.5625 76.4375 C-11.3032932 74 -11.3032932 74 -8.5625 74 C-7.716875 74.33 -6.87125 74.66 -6 75 C-5.00226562 75.23396484 -5.00226562 75.23396484 -3.984375 75.47265625 C-1.71586074 76.08874555 0.03373522 76.70535825 2 78 C4.10934504 81.96901251 4.27647406 86.57641496 4 91 C6.64 91 9.28 91 12 91 C12 90.01 12 89.02 12 88 C15.875 89.75 15.875 89.75 17 92 C16.505 93.98 16.505 93.98 16 96 C10.72 96 5.44 96 0 96 C-2.28571429 86.42857143 -2.28571429 86.42857143 -2 82 C-7.34628845 80.58798709 -7.34628845 80.58798709 -12.39453125 82.3046875 C-13.93371916 83.41249439 -15.44518974 84.56015288 -16.921875 85.75 C-19 87 -19 87 -20.99609375 86.921875 C-23.57653531 85.73477128 -25.27713772 84.22954796 -27.3125 82.25 C-28.03050781 81.57453125 -28.74851562 80.8990625 -29.48828125 80.203125 C-31 78 -31 78 -30.89453125 75.44140625 C-29.99838897 72.9956031 -29.08852209 71.61640894 -27.375 69.6875 C-25.73923702 67.55960203 -25.02266444 66.47847158 -24.89453125 63.7734375 C-25.18484445 61.32118531 -25.18484445 61.32118531 -26 58 C-26.67546875 57.93941406 -27.3509375 57.87882812 -28.046875 57.81640625 C-28.93890625 57.73261719 -29.8309375 57.64882813 -30.75 57.5625 C-31.63171875 57.48128906 -32.5134375 57.40007813 -33.421875 57.31640625 C-36 57 -36 57 -40 56 C-40 50.72 -40 45.44 -40 40 C-30.42857143 37.71428571 -30.42857143 37.71428571 -26 38 C-24.58798709 32.65371155 -24.58798709 32.65371155 -26.3046875 27.60546875 C-27.41249439 26.06628084 -28.56015288 24.55481026 -29.75 23.078125 C-31 21 -31 21 -30.921875 19.00390625 C-29.73477128 16.42346469 -28.22954796 14.72286228 -26.25 12.6875 C-25.57453125 11.96949219 -24.8990625 11.25148438 -24.203125 10.51171875 C-22 9 -22 9 -19.44140625 9.10546875 C-16.9956031 10.00161103 -15.61640894 10.91147791 -13.6875 12.625 C-11.55960203 14.26076298 -10.47847158 14.97733556 -7.7734375 15.10546875 C-5.32118531 14.81515555 -5.32118531 14.81515555 -2 14 C-1.90912109 12.86111328 -1.90912109 12.86111328 -1.81640625 11.69921875 C-1.73261719 10.70535156 -1.64882813 9.71148437 -1.5625 8.6875 C-1.48128906 7.70136719 -1.40007813 6.71523437 -1.31640625 5.69921875 C-1 3 -1 3 0 0 Z " fill="#002D82" transform="translate(44,4)"/>
<path d="M0 0 C4.67680051 2.76135415 7.52308119 6.19717012 9.875 11.125 C11.5917972 19.24076857 10.53090841 25.7066116 7.5625 33.375 C11.1925 37.005 14.8225 40.635 18.5625 44.375 C17.2425 45.695 15.9225 47.015 14.5625 48.375 C10.9325 44.745 7.3025 41.115 3.5625 37.375 C2.28375 37.87 1.005 38.365 -0.3125 38.875 C-7.58707979 41.24293834 -13.68772924 41.4873784 -20.75 38.3125 C-26.31792745 35.23963438 -29.40432505 31.47452485 -31.4375 25.375 C-32.09856953 18.05988638 -32.20589707 11.30577642 -27.4375 5.375 C-19.78714501 -1.65963225 -9.93327065 -4.56854623 0 0 Z M-22.4375 7.375 C-26.17596471 12.16790347 -27.09093382 15.95084862 -26.82421875 22.01171875 C-26.03537926 26.8324045 -23.38576487 29.51924878 -19.875 32.6875 C-15.65185558 35.61121536 -11.45049289 36.03848435 -6.4375 35.375 C-1.61932934 33.58761411 1.723496 30.633506 4.5625 26.375 C6.22276461 21.39420617 6.16153425 17.07226371 4.4375 12.1875 C1.84785548 8.30303322 -1.21064041 5.48842979 -5.4375 3.375 C-12.25605126 2.61461311 -16.98328038 3.1207087 -22.4375 7.375 Z " fill="#002D82" transform="translate(85.4375,55.625)"/>
<path d="M0 0 C4.96445779 2.79192971 7.56525515 5.86438481 9.72265625 11.1171875 C9.47265625 14.0546875 9.47265625 14.0546875 8.72265625 16.1171875 C7.40265625 16.4471875 6.08265625 16.7771875 4.72265625 17.1171875 C4.54089844 16.57449219 4.35914062 16.03179687 4.171875 15.47265625 C3.92050781 14.75722656 3.66914062 14.04179688 3.41015625 13.3046875 C3.04470703 12.24314453 3.04470703 12.24314453 2.671875 11.16015625 C1.61486474 8.88519177 0.70429493 7.65330554 -1.27734375 6.1171875 C-5.4232436 4.89049803 -9.11815517 4.66359197 -13.15234375 6.2421875 C-15.70726089 8.49652615 -17.02521085 9.9172923 -18.27734375 13.1171875 C-18.47174583 17.46401809 -18.09023133 20.94301655 -15.58984375 24.5546875 C-12.9151695 26.36189983 -10.38192267 27.27048416 -7.27734375 28.1171875 C-7.60734375 29.7671875 -7.93734375 31.4171875 -8.27734375 33.1171875 C-13.30080627 32.6387625 -16.37927256 31.33733327 -20.27734375 28.1171875 C-23.89559244 23.35633396 -24.99598543 19.59919035 -24.72265625 13.61328125 C-23.83736641 8.6509987 -21.456597 5.07519676 -17.73828125 1.734375 C-12.40973759 -1.87691289 -5.96415581 -2.31200551 0 0 Z " fill="#002D82" transform="translate(59.27734375,35.8828125)"/>
</svg>
