<?xml version="1.0" encoding="UTF-8"?>
<svg version="1.1" xmlns="http://www.w3.org/2000/svg" width="104" height="104">
<path d="M0 0 C25.08 0 50.16 0 76 0 C76.391875 12.313125 76.78375 24.62625 77.1875 37.3125 C77.36047607 41.15946533 77.53345215 45.00643066 77.71166992 48.9699707 C78.45078427 76.13798025 78.45078427 76.13798025 70.62783813 86.44882202 C62.5630105 94.8945875 54.17536377 97.47065959 42.67578125 97.85546875 C37.52240447 97.83790976 32.47066434 97.50583565 27.3125 97.1875 C13.7928125 96.5996875 13.7928125 96.5996875 0 96 C0 64.32 0 32.64 0 0 Z M5 5 C5 33.38 5 61.76 5 91 C20.51 91 36.02 91 52 91 C52 85.06 52 79.12 52 73 C58.27 73 64.54 73 71 73 C71 50.56 71 28.12 71 5 C49.22 5 27.44 5 5 5 Z M57 78 C57 80.97 57 83.94 57 87 C58.670625 85.6078125 58.670625 85.6078125 60.375 84.1875 C61.00148438 83.66542969 61.62796875 83.14335938 62.2734375 82.60546875 C64.2221048 80.91774261 64.2221048 80.91774261 66 78 C63.03 78 60.06 78 57 78 Z " fill="#002E82" transform="translate(14,4)"/>
<path d="M0 0 C9.9 0 19.8 0 30 0 C30 1.65 30 3.3 30 5 C20.1 5 10.2 5 0 5 C0 3.35 0 1.7 0 0 Z " fill="#002D82" transform="translate(43,64)"/>
<path d="M0 0 C9.9 0 19.8 0 30 0 C30 1.65 30 3.3 30 5 C20.1 5 10.2 5 0 5 C0 3.35 0 1.7 0 0 Z " fill="#002E82" transform="translate(43,52)"/>
<path d="M0 0 C9.9 0 19.8 0 30 0 C30 1.65 30 3.3 30 5 C20.1 5 10.2 5 0 5 C0 3.35 0 1.7 0 0 Z " fill="#002D82" transform="translate(43,39)"/>
<path d="M0 0 C9.9 0 19.8 0 30 0 C30 1.65 30 3.3 30 5 C20.1 5 10.2 5 0 5 C0 3.35 0 1.7 0 0 Z " fill="#002E82" transform="translate(43,27)"/>
<path d="M0 0 C2.31 0 4.62 0 7 0 C7 1.65 7 3.3 7 5 C4.69 5 2.38 5 0 5 C0 3.35 0 1.7 0 0 Z " fill="#002D82" transform="translate(31,64)"/>
<path d="M0 0 C2.31 0 4.62 0 7 0 C7 1.65 7 3.3 7 5 C4.69 5 2.38 5 0 5 C0 3.35 0 1.7 0 0 Z " fill="#002E82" transform="translate(31,52)"/>
<path d="M0 0 C2.31 0 4.62 0 7 0 C7 1.65 7 3.3 7 5 C4.69 5 2.38 5 0 5 C0 3.35 0 1.7 0 0 Z " fill="#002D82" transform="translate(31,39)"/>
<path d="M0 0 C2.31 0 4.62 0 7 0 C7 1.65 7 3.3 7 5 C4.69 5 2.38 5 0 5 C0 3.35 0 1.7 0 0 Z " fill="#002E82" transform="translate(31,27)"/>
</svg>
