<?xml version="1.0" encoding="UTF-8"?>
<svg version="1.1" xmlns="http://www.w3.org/2000/svg" width="104" height="104">
<path d="M0 0 C3.18069991 2.66291155 4.46428527 4.49327111 4.98828125 8.6171875 C5.01353588 14.02167743 4.47921432 17.48082137 1.6875 22.25 C1.6875 23.24 1.6875 24.23 1.6875 25.25 C3.43994604 26.46662729 3.43994604 26.46662729 5.625 27.5 C9.17361758 29.5564427 9.56255105 29.80900371 10.75 34 C10.6875 37.25 10.6875 37.25 9.6875 38.25 C7.32351532 38.3507812 4.98938689 38.38973215 2.625 38.3828125 C1.91851318 38.38376923 1.21202637 38.38472595 0.48413086 38.38571167 C-1.01220793 38.38639333 -2.50854967 38.38454005 -4.00488281 38.38037109 C-6.30280157 38.37502257 -8.60052486 38.38031651 -10.8984375 38.38671875 C-12.34895877 38.38605797 -13.79947991 38.3847768 -15.25 38.3828125 C-16.2874939 38.38584885 -16.2874939 38.38584885 -17.34594727 38.38894653 C-22.19754776 38.36495224 -22.19754776 38.36495224 -23.3125 37.25 C-23.15273937 33.01634335 -22.98561615 30.92311615 -19.9375 27.875 C-17.3125 26.25 -17.3125 26.25 -14.3125 25.25 C-14.85973683 21.87537285 -15.3674 20.16765 -17.3125 17.25 C-17.61328125 14.5078125 -17.61328125 14.5078125 -17.625 11.375 C-17.65013672 9.83199219 -17.65013672 9.83199219 -17.67578125 8.2578125 C-17.26539817 4.86001709 -16.30369329 3.00440252 -14.3125 0.25 C-9.82307362 -3.11706979 -4.74264221 -2.50554683 0 0 Z M-10.4375 4.1875 C-13.05952085 7.07172293 -12.80470088 9.264042 -12.65234375 13.0546875 C-12.42865282 15.41271172 -12.42865282 15.41271172 -10.8125 17.75 C-8.58404811 21.46408648 -9.06372658 25.02085184 -9.3125 29.25 C-10.7665625 29.683125 -10.7665625 29.683125 -12.25 30.125 C-15.41914203 30.89214682 -15.41914203 30.89214682 -16.3125 33.25 C-9.7125 33.25 -3.1125 33.25 3.6875 33.25 C1.06591373 30.25005887 1.06591373 30.25005887 -1.453125 29.3515625 C-3.3125 28.25 -3.3125 28.25 -3.921875 26.0859375 C-3.96828125 25.27382813 -4.0146875 24.46171875 -4.0625 23.625 C-4.11921875 22.80773437 -4.1759375 21.99046875 -4.234375 21.1484375 C-4.27304687 20.20871094 -4.27304687 20.20871094 -4.3125 19.25 C-3.6525 19.25 -2.9925 19.25 -2.3125 19.25 C-0.31413609 15.12837443 0.35082787 11.81037911 -0.3125 7.25 C-4.91793424 3.27960963 -4.91793424 3.27960963 -10.4375 4.1875 Z " fill="#002D82" transform="translate(58.3125,32.75)"/>
<path d="M0 0 C2.875 1.3125 2.875 1.3125 4.875 3.3125 C5.33392595 6.83093231 5.28640736 8.66110502 3.375 11.6875 C0.875 13.3125 0.875 13.3125 -2.5625 13.0625 C-8.32842546 12.66148639 -12.57623048 16.50887105 -17.07421875 19.66015625 C-20.125 21.3125 -20.125 21.3125 -23.01953125 21.05859375 C-23.71433594 20.81238281 -24.40914063 20.56617187 -25.125 20.3125 C-24.83178711 18.44897461 -24.83178711 18.44897461 -24.125 16.3125 C-21.01465353 14.25974478 -17.86849839 12.50333062 -14.58398438 10.75585938 C-10.41747151 8.48288386 -10.41747151 8.48288386 -7.76171875 4.6484375 C-7.44654297 3.49214844 -7.44654297 3.49214844 -7.125 2.3125 C-4.55015837 -0.53821752 -3.81646895 -0.83962317 0 0 Z M-2.125 4.3125 C-2.125 5.6325 -2.125 6.9525 -2.125 8.3125 C-1.465 7.9825 -0.805 7.6525 -0.125 7.3125 C-0.455 6.3225 -0.785 5.3325 -1.125 4.3125 C-1.455 4.3125 -1.785 4.3125 -2.125 4.3125 Z " fill="#002D82" transform="translate(91.125,22.6875)"/>
<path d="M0 0 C2.58280997 1.01953025 3.71687531 1.72666708 5.375 3.9375 C5.69210938 5.10345703 5.69210938 5.10345703 6.015625 6.29296875 C7.9152284 9.98846157 10.85680387 11.2185769 14.4375 13 C21.13078806 16.34996083 21.13078806 16.34996083 22.30859375 19.18359375 C22.33050781 19.76238281 22.35242188 20.34117188 22.375 20.9375 C20.796875 21.68359375 20.796875 21.68359375 18.375 21.9375 C15.39703872 20.38617288 12.65342876 18.68144782 9.859375 16.83007812 C5.09329547 13.86695631 1.95712279 13.70785571 -3.625 13.9375 C-6.125 12.3125 -6.125 12.3125 -7.625 9.9375 C-8.1875 6.9375 -8.1875 6.9375 -7.625 3.9375 C-5.12171555 1.14812589 -3.80877374 -0.09068509 0 0 Z M-2.625 5.9375 C-2.295 6.9275 -1.965 7.9175 -1.625 8.9375 C-0.965 8.6075 -0.305 8.2775 0.375 7.9375 C0.375 7.2775 0.375 6.6175 0.375 5.9375 C-0.615 5.9375 -1.605 5.9375 -2.625 5.9375 Z " fill="#002D82" transform="translate(15.625,22.0625)"/>
<path d="M0 0 C1.96484375 0.6328125 1.96484375 0.6328125 4 2 C4.50390625 4.6796875 4.50390625 4.6796875 4.5625 7.875 C4.65775679 12.43611937 5.10756142 14.49050786 8 18 C7.8624874 20.81900839 7.35530428 22.45769347 5.8125 24.8125 C3.13782006 26.56487651 1.12570522 26.32559429 -2 26 C-5 24 -5 24 -5.875 21.125 C-6 18 -6 18 -4.54296875 16.1875 C-2.5373194 13.34404776 -2.56882002 11.32320956 -2.4375 7.875 C-2.2089172 2.2089172 -2.2089172 2.2089172 0 0 Z M0 18 C0 18.99 0 19.98 0 21 C0.99 20.67 1.98 20.34 3 20 C2.67 19.34 2.34 18.68 2 18 C1.34 18 0.68 18 0 18 Z " fill="#002D82" transform="translate(51,74)"/>
<path d="M0 0 C0.6290625 0.3609375 1.258125 0.721875 1.90625 1.09375 C7.80471381 4.37099232 7.80471381 4.37099232 14.375 5.0625 C18 5 18 5 20.5 6.625 C22.46942769 9.74326051 22.67927401 11.37720527 22 15 C19.8125 17.4375 19.8125 17.4375 17 19 C14.10400144 18.93104765 12.63126424 18.46760314 10.3125 16.75 C9 15 9 15 8.20703125 12.59765625 C6.74528748 9.45183228 5.30275793 8.48597987 2.375 6.6875 C1.55773437 6.17574219 0.74046875 5.66398437 -0.1015625 5.13671875 C-0.72804688 4.76160156 -1.35453125 4.38648437 -2 4 C-1.34 2.68 -0.68 1.36 0 0 Z M15 10 C14.67 10.99 14.34 11.98 14 13 C14.99 13 15.98 13 17 13 C16.67 12.01 16.34 11.02 16 10 C15.67 10 15.34 10 15 10 Z " fill="#002D82" transform="translate(74,63)"/>
<path d="M0 0 C2.234375 0.8515625 2.234375 0.8515625 4 2 C2.60379712 5.43960398 1.25204428 6.70985148 -2 8.4375 C-5.6142516 10.55014707 -6.72095918 11.94970408 -8 16 C-9.75 17.9375 -9.75 17.9375 -12 19 C-15.49900021 18.23021995 -17.456333 17.543667 -20 15 C-20.45892595 11.48156769 -20.41140736 9.65139498 -18.5 6.625 C-15.49796282 4.67367584 -13.64021143 4.97172127 -10.15625 5.19921875 C-6.72907055 4.88257717 -4.51563129 2.97295171 -1.859375 0.8984375 C-1.24578125 0.60195313 -0.6321875 0.30546875 0 0 Z M-14 10 C-14 11.32 -14 12.64 -14 14 C-13.34 13.67 -12.68 13.34 -12 13 C-12.33 12.01 -12.66 11.02 -13 10 C-13.33 10 -13.66 10 -14 10 Z " fill="#002D82" transform="translate(28,63)"/>
<path d="M0 0 C3 2 3 2 3.875 4.875 C4 8 4 8 2.625 9.8125 C0.4231578 12.77651835 0.46328239 15.35961906 0.2109375 18.9765625 C0 21 0 21 -1 23 C-2.65 22.67 -4.3 22.34 -6 22 C-6.03738281 21.32453125 -6.07476562 20.6490625 -6.11328125 19.953125 C-6.17902344 19.06109375 -6.24476562 18.1690625 -6.3125 17.25 C-6.37050781 16.36828125 -6.42851563 15.4865625 -6.48828125 14.578125 C-7.06742078 11.66032279 -8.18022597 10.30046906 -10 8 C-9.8624874 5.18099161 -9.35530428 3.54230653 -7.8125 1.1875 C-5.13782006 -0.56487651 -3.12570522 -0.32559429 0 0 Z M-4 5 C-4 5.99 -4 6.98 -4 8 C-3.01 7.67 -2.02 7.34 -1 7 C-1.33 6.34 -1.66 5.68 -2 5 C-2.66 5 -3.32 5 -4 5 Z " fill="#002E82" transform="translate(55,4)"/>
</svg>
