<?xml version="1.0" encoding="UTF-8"?>
<svg version="1.1" xmlns="http://www.w3.org/2000/svg" width="120" height="120">
<path d="M0 0 C1.24003029 -0.01007584 1.24003029 -0.01007584 2.50511169 -0.02035522 C5.23157808 -0.03931557 7.957798 -0.04325855 10.68432617 -0.04541016 C12.58615723 -0.05183989 14.48798729 -0.05856838 16.38981628 -0.06558228 C20.37513521 -0.07755045 24.3603675 -0.08126361 28.34570312 -0.08007812 C33.43995969 -0.07987507 38.53365758 -0.10716589 43.62778187 -0.14162254 C47.55615261 -0.16391614 51.48438949 -0.1679149 55.412817 -0.16685867 C57.29020804 -0.16921136 59.16760295 -0.17801607 61.04493141 -0.19352341 C63.67748161 -0.21323159 66.30883468 -0.20732661 68.94140625 -0.1953125 C69.70895233 -0.20655151 70.47649841 -0.21779053 71.26730347 -0.22937012 C77.81823521 -0.1538182 82.96889668 1.92809386 87.90698242 6.25537109 C88.44581055 6.90634766 88.98463867 7.55732422 89.53979492 8.22802734 C90.0940918 8.87642578 90.64838867 9.52482422 91.21948242 10.19287109 C94.63215049 15.14585151 94.96221439 19.74307512 94.95532227 25.62573242 C94.96203949 26.45241928 94.96875671 27.27910614 94.97567749 28.13084412 C94.99463784 30.8573105 94.99858081 33.58353042 95.00073242 36.31005859 C95.00716215 38.21188965 95.01389065 40.11371972 95.02090454 42.01554871 C95.03287271 46.00086764 95.03658588 49.98609992 95.03540039 53.97143555 C95.03519733 59.06569211 95.06248816 64.15939 95.09694481 69.25351429 C95.11923841 73.18188503 95.12323716 77.11012191 95.12218094 81.03854942 C95.12453362 82.91594046 95.13333833 84.79333537 95.14884567 86.67066383 C95.16855385 89.30321403 95.16264887 91.9345671 95.15063477 94.56713867 C95.16187378 95.33468475 95.17311279 96.10223083 95.18469238 96.89303589 C95.10914047 103.44396763 93.0272284 108.5946291 88.69995117 113.53271484 C88.04897461 114.07154297 87.39799805 114.61037109 86.72729492 115.16552734 C86.07889648 115.71982422 85.43049805 116.27412109 84.76245117 116.84521484 C79.80947076 120.25788291 75.21224715 120.58794681 69.32958984 120.58105469 C68.50290298 120.58777191 67.67621613 120.59448914 66.82447815 120.60140991 C64.09801176 120.62037026 61.37179184 120.62431323 58.64526367 120.62646484 C56.74343262 120.63289458 54.84160255 120.63962307 52.93977356 120.64663696 C48.95445463 120.65860513 44.96922235 120.6623183 40.98388672 120.66113281 C35.88963015 120.66092975 30.79593226 120.68822058 25.70180798 120.72267723 C21.77343723 120.74497083 17.84520036 120.74896958 13.91677284 120.74791336 C12.03938181 120.75026604 10.1619869 120.75907076 8.28465843 120.77457809 C5.65210823 120.79428627 3.02075517 120.7883813 0.38818359 120.77636719 C-0.37936249 120.7876062 -1.14690857 120.79884521 -1.93771362 120.8104248 C-8.48864536 120.73487289 -13.63930683 118.65296082 -18.57739258 114.32568359 C-19.1162207 113.67470703 -19.65504883 113.02373047 -20.21020508 112.35302734 C-20.76450195 111.70462891 -21.31879883 111.05623047 -21.88989258 110.38818359 C-25.30256065 105.43520318 -25.63262455 100.83797957 -25.62573242 94.95532227 C-25.63244965 94.12863541 -25.63916687 93.30194855 -25.64608765 92.45021057 C-25.66504799 89.72374418 -25.66899097 86.99752427 -25.67114258 84.27099609 C-25.67757231 82.36916504 -25.6843008 80.46733497 -25.6913147 78.56550598 C-25.70328287 74.58018705 -25.70699604 70.59495477 -25.70581055 66.60961914 C-25.70560749 61.51536258 -25.73289831 56.42166468 -25.76735497 51.3275404 C-25.78964857 47.39916965 -25.79364732 43.47093278 -25.79259109 39.54250526 C-25.79494378 37.66511423 -25.80374849 35.78771932 -25.81925583 33.91039085 C-25.83896401 31.27784066 -25.83305903 28.64648759 -25.82104492 26.01391602 C-25.83228394 25.24636993 -25.84352295 24.47882385 -25.85510254 23.6880188 C-25.77955062 17.13708706 -23.69763856 11.98642559 -19.37036133 7.04833984 C-18.71938477 6.50951172 -18.0684082 5.97068359 -17.39770508 5.41552734 C-16.74930664 4.86123047 -16.1009082 4.30693359 -15.43286133 3.73583984 C-10.47988091 0.32317177 -5.8826573 -0.00689212 0 0 Z " fill="#012F83" transform="translate(25.335205078125,-0.29052734375)"/>
<path d="M0 0 C1.29111191 0.0001133 1.29111191 0.0001133 2.60830688 0.00022888 C3.53855682 0.00539017 4.46880676 0.01055145 5.42724609 0.01586914 C6.37884613 0.01728409 7.33044617 0.01869904 8.31088257 0.02015686 C11.35751456 0.02576527 14.40407372 0.0383192 17.45068359 0.05102539 C19.51318253 0.05603931 21.57568262 0.0606024 23.63818359 0.06469727 C28.70071176 0.07573744 33.76318532 0.09300772 38.82568359 0.11352539 C35.52797458 4.66573283 32.25563552 8.93386544 28.15380859 12.80493164 C27.32494141 13.60479492 26.49607422 14.4046582 25.64208984 15.22875977 C23.9210082 16.8699434 22.19436243 18.5053104 20.46240234 20.13500977 C14.26635612 26.12008578 14.26635612 26.12008578 11.82568359 34.11352539 C11.98513143 37.95266173 11.98513143 37.95266173 13.82568359 41.11352539 C15.79167396 41.31367526 15.79167396 41.31367526 18.07568359 41.30102539 C18.84396484 41.31520508 19.61224609 41.32938477 20.40380859 41.34399414 C26.26105108 40.78661139 29.56237826 37.77302772 33.49365234 33.66821289 C34.27498283 32.87340012 34.27498283 32.87340012 35.07209778 32.06253052 C36.72649869 30.37822396 38.37057238 28.68432592 40.01318359 26.98852539 C41.66740304 25.28653499 43.32377176 23.58687123 44.98640442 21.89309692 C46.01879654 20.84088488 47.04621644 19.78376701 48.06816101 18.72140503 C49.28304544 17.48078359 50.55014662 16.29169819 51.82568359 15.11352539 C52.48568359 15.11352539 53.14568359 15.11352539 53.82568359 15.11352539 C53.9246792 21.14578478 53.99721267 27.17756966 54.04541016 33.21044922 C54.06550558 35.26196532 54.09278683 37.31342428 54.12744141 39.36474609 C54.17605028 42.31630564 54.19867312 45.26710687 54.21630859 48.21899414 C54.23695374 49.13376022 54.25759888 50.04852631 54.27886963 50.99101257 C54.28034384 55.18988415 54.19254264 57.5032151 51.98876953 61.16943359 C48.75999469 64.07132232 46.13336546 64.24048832 41.95874023 64.25878906 C40.97084 64.26516891 39.98293976 64.27154877 38.96510315 64.27812195 C37.36661781 64.27979118 37.36661781 64.27979118 35.73583984 64.28149414 C34.63976913 64.28482254 33.54369843 64.28815094 32.41441345 64.2915802 C30.09520894 64.2966452 27.77599714 64.29898866 25.45678711 64.29882812 C21.9058026 64.30101454 18.35512874 64.31917481 14.80419922 64.33813477 C12.55224716 64.34106876 10.30029362 64.34305351 8.04833984 64.34399414 C6.98470718 64.35117966 5.92107452 64.35836517 4.82521057 64.36576843 C3.83415817 64.3626918 2.84310577 64.35961517 1.82202148 64.35644531 C0.51655113 64.35858284 0.51655113 64.35858284 -0.81529236 64.36076355 C-3.40353508 64.08950207 -4.98234898 63.50019665 -7.17431641 62.11352539 C-11.01217573 56.73225601 -10.62570079 51.11114403 -10.60791016 44.76586914 C-10.61315201 43.67641495 -10.61839386 42.58696075 -10.62379456 41.4644928 C-10.63020272 39.16741791 -10.62889343 36.87031016 -10.62036133 34.57324219 C-10.61183669 31.05938455 -10.6406552 27.54714508 -10.67236328 24.03344727 C-10.67397507 21.79842171 -10.6733982 19.56339328 -10.67041016 17.32836914 C-10.68164413 16.27930893 -10.69287811 15.23024872 -10.70445251 14.1493988 C-10.63488115 6.87189094 -10.63488115 6.87189094 -8.26831055 2.97509766 C-5.34670874 0.37777764 -3.81046282 -0.0111417 0 0 Z " fill="#FCFCFD" transform="translate(38.17431640625,27.886474609375)"/>
<path d="M0 0 C2.8605891 1.35937085 4.85927699 2.64520469 7 5 C4.6314276 10.70214974 -0.26735234 14.75449212 -4.53808594 19.07348633 C-6.11511686 20.67744809 -7.66646902 22.30376474 -9.21875 23.93164062 C-10.23026604 24.95981592 -11.24324187 25.98655751 -12.2578125 27.01171875 C-13.1667627 27.94459717 -14.07571289 28.87747559 -15.01220703 29.83862305 C-18.86667893 32.62695772 -21.30478599 32.75727437 -26 33 C-25.7148963 26.23439304 -24.32717451 23.31719041 -19.43359375 18.75 C-18.88010757 18.20641846 -18.3266214 17.66283691 -17.75636292 17.1027832 C-15.99925561 15.38460019 -14.21934563 13.69247633 -12.4375 12 C-11.23603268 10.83367466 -10.03614443 9.66572033 -8.83789062 8.49609375 C-5.90985756 5.6448933 -2.96112754 2.81679835 0 0 Z " fill="#F8FAFC" transform="translate(81,32)"/>
<path d="M0 0 C4 0 4 0 5.8125 1.75 C7 4 7 4 6.6875 6.25 C6.3471875 7.11625 6.3471875 7.11625 6 8 C4.25 8.75 4.25 8.75 2 9 C-0.3125 7.3125 -0.3125 7.3125 -2 5 C-1.80984746 2.78155374 -1.58477845 1.58477845 0 0 Z " fill="#E9EDF4" transform="translate(87,26)"/>
</svg>
