<?xml version="1.0" encoding="UTF-8"?>
<svg version="1.1" xmlns="http://www.w3.org/2000/svg" width="120" height="120">
<path d="M0 0 C1.24003029 -0.01007584 1.24003029 -0.01007584 2.50511169 -0.02035522 C5.23157808 -0.03931557 7.957798 -0.04325855 10.68432617 -0.04541016 C12.58615723 -0.05183989 14.48798729 -0.05856838 16.38981628 -0.06558228 C20.37513521 -0.07755045 24.3603675 -0.08126361 28.34570312 -0.08007812 C33.43995969 -0.07987507 38.53365758 -0.10716589 43.62778187 -0.14162254 C47.55615261 -0.16391614 51.48438949 -0.1679149 55.412817 -0.16685867 C57.29020804 -0.16921136 59.16760295 -0.17801607 61.04493141 -0.19352341 C63.67748161 -0.21323159 66.30883468 -0.20732661 68.94140625 -0.1953125 C69.70895233 -0.20655151 70.47649841 -0.21779053 71.26730347 -0.22937012 C77.81823521 -0.1538182 82.96889668 1.92809386 87.90698242 6.25537109 C88.44581055 6.90634766 88.98463867 7.55732422 89.53979492 8.22802734 C90.0940918 8.87642578 90.64838867 9.52482422 91.21948242 10.19287109 C94.63215049 15.14585151 94.96221439 19.74307512 94.95532227 25.62573242 C94.96203949 26.45241928 94.96875671 27.27910614 94.97567749 28.13084412 C94.99463784 30.8573105 94.99858081 33.58353042 95.00073242 36.31005859 C95.00716215 38.21188965 95.01389065 40.11371972 95.02090454 42.01554871 C95.03287271 46.00086764 95.03658588 49.98609992 95.03540039 53.97143555 C95.03519733 59.06569211 95.06248816 64.15939 95.09694481 69.25351429 C95.11923841 73.18188503 95.12323716 77.11012191 95.12218094 81.03854942 C95.12453362 82.91594046 95.13333833 84.79333537 95.14884567 86.67066383 C95.16855385 89.30321403 95.16264887 91.9345671 95.15063477 94.56713867 C95.16187378 95.33468475 95.17311279 96.10223083 95.18469238 96.89303589 C95.10914047 103.44396763 93.0272284 108.5946291 88.69995117 113.53271484 C88.04897461 114.07154297 87.39799805 114.61037109 86.72729492 115.16552734 C86.07889648 115.71982422 85.43049805 116.27412109 84.76245117 116.84521484 C79.80947076 120.25788291 75.21224715 120.58794681 69.32958984 120.58105469 C68.50290298 120.58777191 67.67621613 120.59448914 66.82447815 120.60140991 C64.09801176 120.62037026 61.37179184 120.62431323 58.64526367 120.62646484 C56.74343262 120.63289458 54.84160255 120.63962307 52.93977356 120.64663696 C48.95445463 120.65860513 44.96922235 120.6623183 40.98388672 120.66113281 C35.88963015 120.66092975 30.79593226 120.68822058 25.70180798 120.72267723 C21.77343723 120.74497083 17.84520036 120.74896958 13.91677284 120.74791336 C12.03938181 120.75026604 10.1619869 120.75907076 8.28465843 120.77457809 C5.65210823 120.79428627 3.02075517 120.7883813 0.38818359 120.77636719 C-0.37936249 120.7876062 -1.14690857 120.79884521 -1.93771362 120.8104248 C-8.48864536 120.73487289 -13.63930683 118.65296082 -18.57739258 114.32568359 C-19.1162207 113.67470703 -19.65504883 113.02373047 -20.21020508 112.35302734 C-20.76450195 111.70462891 -21.31879883 111.05623047 -21.88989258 110.38818359 C-25.30256065 105.43520318 -25.63262455 100.83797957 -25.62573242 94.95532227 C-25.63244965 94.12863541 -25.63916687 93.30194855 -25.64608765 92.45021057 C-25.66504799 89.72374418 -25.66899097 86.99752427 -25.67114258 84.27099609 C-25.67757231 82.36916504 -25.6843008 80.46733497 -25.6913147 78.56550598 C-25.70328287 74.58018705 -25.70699604 70.59495477 -25.70581055 66.60961914 C-25.70560749 61.51536258 -25.73289831 56.42166468 -25.76735497 51.3275404 C-25.78964857 47.39916965 -25.79364732 43.47093278 -25.79259109 39.54250526 C-25.79494378 37.66511423 -25.80374849 35.78771932 -25.81925583 33.91039085 C-25.83896401 31.27784066 -25.83305903 28.64648759 -25.82104492 26.01391602 C-25.83228394 25.24636993 -25.84352295 24.47882385 -25.85510254 23.6880188 C-25.77955062 17.13708706 -23.69763856 11.98642559 -19.37036133 7.04833984 C-18.71938477 6.50951172 -18.0684082 5.97068359 -17.39770508 5.41552734 C-16.74930664 4.86123047 -16.1009082 4.30693359 -15.43286133 3.73583984 C-10.47988091 0.32317177 -5.8826573 -0.00689212 0 0 Z " fill="#002E83" transform="translate(25.335205078125,-0.29052734375)"/>
<path d="M0 0 C2.8125 2.4375 2.8125 2.4375 5 5 C6.01707287 6.24975091 6.01707287 6.24975091 8.14453125 6.02734375 C9.91546334 5.96770768 11.68630223 5.90523256 13.45703125 5.83984375 C16.21464016 6.01351804 17.70212968 6.4896861 20 8 C22.16910912 11.25366368 22.18298255 12.24702265 22.25 16 C22.38434478 18.64756316 22.38434478 18.64756316 23 21 C25.83440898 23.04273132 25.83440898 23.04273132 29 24 C31.36086122 27.54129184 31.57269578 28.82750218 31 33 C29.84375 34.58203125 29.84375 34.58203125 28.4375 36.125 C25.72227261 38.65923855 25.72227261 38.65923855 26.125 41.25 C26.41375 41.8275 26.7025 42.405 27 43 C28.44430855 45.88861709 28.37688506 47.79647701 28 51 C25.9375 53.8125 25.9375 53.8125 23 56 C21.824375 56.0825 20.64875 56.165 19.4375 56.25 C18.303125 56.4975 17.16875 56.745 16 57 C14.65393801 59.23023997 13.82577928 61.39674635 13.01953125 63.87109375 C12 66 12 66 10.11328125 67.30078125 C6.87291026 68.37291879 4.27936372 67.72874749 1 67 C0.01 66.01 0.01 66.01 -1 65 C-4.44165321 65.35299007 -6.06872538 66.04581692 -9 68 C-12.16431459 68.33662921 -14.27825717 68.32993958 -17.1875 67 C-19.13953754 64.84602754 -19.43169168 63.67730515 -20.1875 60.9375 C-20.79744663 58.77793032 -20.79744663 58.77793032 -22 57 C-24.30832194 56.08619901 -26.44953738 55.75722067 -28.90234375 55.40625 C-31 55 -31 55 -33.0625 53.25 C-34.28696845 50.31127571 -34.33565485 48.15515557 -34 45 C-33.34 44.01 -32.68 43.02 -32 42 C-32.1989989 39.01501648 -33.07677993 37.91158675 -35.0625 35.625 C-37 33 -37 33 -37.5625 30 C-36.80460628 25.95790018 -35.17793629 24.52790387 -32 22 C-29.828125 21.36328125 -29.828125 21.36328125 -28 21 C-28.04640625 20.40832031 -28.0928125 19.81664063 -28.140625 19.20703125 C-28.32631561 15.1417332 -28.3479039 12.64228413 -26.375 9 C-23.47258729 6.55586298 -21.767685 6.15378306 -18 6 C-15.125 6.4375 -15.125 6.4375 -13 7 C-12.21625 6.030625 -11.4325 5.06125 -10.625 4.0625 C-7.439641 0.12271387 -5.14565378 -0.60537103 0 0 Z " fill="#FBFCFD" transform="translate(63,26)"/>
<path d="M0 0 C0.69996094 0.28488281 1.39992188 0.56976563 2.12109375 0.86328125 C1.23676722 6.5139376 -3.25446674 9.79173569 -7.12890625 13.67578125 C-7.89332031 14.47693359 -8.65773438 15.27808594 -9.4453125 16.10351562 C-10.19167969 16.85568359 -10.93804687 17.60785156 -11.70703125 18.3828125 C-12.38668945 19.07479736 -13.06634766 19.76678223 -13.76660156 20.47973633 C-15.87890625 21.86328125 -15.87890625 21.86328125 -18.49755859 21.70117188 C-21.62023513 20.6024405 -23.07583009 19.02439562 -25.25390625 16.55078125 C-25.96289062 15.77089844 -26.671875 14.99101563 -27.40234375 14.1875 C-28.87890625 11.86328125 -28.87890625 11.86328125 -28.60546875 9.5703125 C-28.36570313 9.00699219 -28.1259375 8.44367187 -27.87890625 7.86328125 C-23.63068251 8.33530611 -21.67900916 10.82983643 -18.87890625 13.86328125 C-13.94475691 12.00557994 -10.81947532 7.77118662 -7.38867188 3.94335938 C-3.49683521 -0.16606409 -3.49683521 -0.16606409 0 0 Z " fill="#133D8C" transform="translate(72.87890625,51.13671875)"/>
</svg>
