<?xml version="1.0" encoding="UTF-8"?>
<svg version="1.1" xmlns="http://www.w3.org/2000/svg" width="120" height="120">
<path d="M0 0 C1.24003029 -0.01007584 1.24003029 -0.01007584 2.50511169 -0.02035522 C5.23157808 -0.03931557 7.957798 -0.04325855 10.68432617 -0.04541016 C12.58615723 -0.05183989 14.48798729 -0.05856838 16.38981628 -0.06558228 C20.37513521 -0.07755045 24.3603675 -0.08126361 28.34570312 -0.08007812 C33.43995969 -0.07987507 38.53365758 -0.10716589 43.62778187 -0.14162254 C47.55615261 -0.16391614 51.48438949 -0.1679149 55.412817 -0.16685867 C57.29020804 -0.16921136 59.16760295 -0.17801607 61.04493141 -0.19352341 C63.67748161 -0.21323159 66.30883468 -0.20732661 68.94140625 -0.1953125 C69.70895233 -0.20655151 70.47649841 -0.21779053 71.26730347 -0.22937012 C77.81823521 -0.1538182 82.96889668 1.92809386 87.90698242 6.25537109 C88.44581055 6.90634766 88.98463867 7.55732422 89.53979492 8.22802734 C90.0940918 8.87642578 90.64838867 9.52482422 91.21948242 10.19287109 C94.63215049 15.14585151 94.96221439 19.74307512 94.95532227 25.62573242 C94.96203949 26.45241928 94.96875671 27.27910614 94.97567749 28.13084412 C94.99463784 30.8573105 94.99858081 33.58353042 95.00073242 36.31005859 C95.00716215 38.21188965 95.01389065 40.11371972 95.02090454 42.01554871 C95.03287271 46.00086764 95.03658588 49.98609992 95.03540039 53.97143555 C95.03519733 59.06569211 95.06248816 64.15939 95.09694481 69.25351429 C95.11923841 73.18188503 95.12323716 77.11012191 95.12218094 81.03854942 C95.12453362 82.91594046 95.13333833 84.79333537 95.14884567 86.67066383 C95.16855385 89.30321403 95.16264887 91.9345671 95.15063477 94.56713867 C95.16187378 95.33468475 95.17311279 96.10223083 95.18469238 96.89303589 C95.10914047 103.44396763 93.0272284 108.5946291 88.69995117 113.53271484 C88.04897461 114.07154297 87.39799805 114.61037109 86.72729492 115.16552734 C86.07889648 115.71982422 85.43049805 116.27412109 84.76245117 116.84521484 C79.80947076 120.25788291 75.21224715 120.58794681 69.32958984 120.58105469 C68.50290298 120.58777191 67.67621613 120.59448914 66.82447815 120.60140991 C64.09801176 120.62037026 61.37179184 120.62431323 58.64526367 120.62646484 C56.74343262 120.63289458 54.84160255 120.63962307 52.93977356 120.64663696 C48.95445463 120.65860513 44.96922235 120.6623183 40.98388672 120.66113281 C35.88963015 120.66092975 30.79593226 120.68822058 25.70180798 120.72267723 C21.77343723 120.74497083 17.84520036 120.74896958 13.91677284 120.74791336 C12.03938181 120.75026604 10.1619869 120.75907076 8.28465843 120.77457809 C5.65210823 120.79428627 3.02075517 120.7883813 0.38818359 120.77636719 C-0.37936249 120.7876062 -1.14690857 120.79884521 -1.93771362 120.8104248 C-8.48864536 120.73487289 -13.63930683 118.65296082 -18.57739258 114.32568359 C-19.1162207 113.67470703 -19.65504883 113.02373047 -20.21020508 112.35302734 C-20.76450195 111.70462891 -21.31879883 111.05623047 -21.88989258 110.38818359 C-25.30256065 105.43520318 -25.63262455 100.83797957 -25.62573242 94.95532227 C-25.63244965 94.12863541 -25.63916687 93.30194855 -25.64608765 92.45021057 C-25.66504799 89.72374418 -25.66899097 86.99752427 -25.67114258 84.27099609 C-25.67757231 82.36916504 -25.6843008 80.46733497 -25.6913147 78.56550598 C-25.70328287 74.58018705 -25.70699604 70.59495477 -25.70581055 66.60961914 C-25.70560749 61.51536258 -25.73289831 56.42166468 -25.76735497 51.3275404 C-25.78964857 47.39916965 -25.79364732 43.47093278 -25.79259109 39.54250526 C-25.79494378 37.66511423 -25.80374849 35.78771932 -25.81925583 33.91039085 C-25.83896401 31.27784066 -25.83305903 28.64648759 -25.82104492 26.01391602 C-25.83228394 25.24636993 -25.84352295 24.47882385 -25.85510254 23.6880188 C-25.77955062 17.13708706 -23.69763856 11.98642559 -19.37036133 7.04833984 C-18.71938477 6.50951172 -18.0684082 5.97068359 -17.39770508 5.41552734 C-16.74930664 4.86123047 -16.1009082 4.30693359 -15.43286133 3.73583984 C-10.47988091 0.32317177 -5.8826573 -0.00689212 0 0 Z " fill="#002E83" transform="translate(25.335205078125,-0.29052734375)"/>
<path d="M0 0 C1.85202026 -0.00945648 1.85202026 -0.00945648 3.74145508 -0.019104 C5.09456525 -0.01552432 6.44767412 -0.01142238 7.80078125 -0.00683594 C9.18318754 -0.00818268 10.56559338 -0.01012329 11.94799805 -0.01263428 C14.84656276 -0.01558511 17.74500428 -0.0112893 20.64355469 -0.00195312 C24.36288762 0.00944152 28.08193193 0.00288181 31.80125427 -0.00909805 C34.65623152 -0.01631782 37.5111401 -0.01402822 40.36611938 -0.00884247 C41.73768142 -0.00750629 43.10924964 -0.0091526 44.48080444 -0.01380157 C46.39605595 -0.01886842 48.31132926 -0.00977925 50.2265625 0 C51.31751221 0.00159119 52.40846191 0.00318237 53.5324707 0.00482178 C56.11328125 0.25878906 56.11328125 0.25878906 58.11328125 2.25878906 C58.36724854 4.53588867 58.36724854 4.53588867 58.37207031 7.41113281 C58.37837463 8.48564697 58.38467896 9.56016113 58.39117432 10.66723633 C58.38712585 11.83182373 58.38307739 12.99641113 58.37890625 14.19628906 C58.3808197 15.38730225 58.38273315 16.57831543 58.38470459 17.80541992 C58.38606755 20.32731334 58.38236341 22.84921375 58.37402344 25.37109375 C58.36332578 29.24267255 58.37391531 33.11378728 58.38671875 36.98535156 C58.38539718 39.43066509 58.38283483 41.87597833 58.37890625 44.32128906 C58.38295471 45.48587646 58.38700317 46.65046387 58.39117432 47.8503418 C58.38171783 49.46211304 58.38171783 49.46211304 58.37207031 51.10644531 C58.37047913 52.05527588 58.36888794 53.00410645 58.36724854 53.98168945 C58.11328125 56.25878906 58.11328125 56.25878906 56.11328125 58.25878906 C53.5324707 58.51275635 53.5324707 58.51275635 50.2265625 58.51757812 C48.99188232 58.52388245 47.75720215 58.53018677 46.48510742 58.53668213 C45.13199725 58.53310245 43.77888838 58.52900051 42.42578125 58.52441406 C41.04337496 58.52576081 39.66096912 58.52770142 38.27856445 58.5302124 C35.37999974 58.53316324 32.48155822 58.52886742 29.58300781 58.51953125 C25.86367488 58.50813661 22.14463057 58.51469631 18.42530823 58.52667618 C15.57033098 58.53389594 12.7154224 58.53160634 9.86044312 58.52642059 C8.48888108 58.52508441 7.11731286 58.52673072 5.74575806 58.5313797 C3.83050655 58.53644654 1.91523324 58.52735737 0 58.51757812 C-1.09094971 58.51598694 -2.18189941 58.51439575 -3.3059082 58.51275635 C-5.88671875 58.25878906 -5.88671875 58.25878906 -7.88671875 56.25878906 C-8.14068604 53.98168945 -8.14068604 53.98168945 -8.14550781 51.10644531 C-8.15181213 50.03193115 -8.15811646 48.95741699 -8.16461182 47.8503418 C-8.16056335 46.68575439 -8.15651489 45.52116699 -8.15234375 44.32128906 C-8.1542572 43.13027588 -8.15617065 41.9392627 -8.15814209 40.7121582 C-8.15950505 38.19026478 -8.15580091 35.66836437 -8.14746094 33.14648438 C-8.13676328 29.27490558 -8.14735281 25.40379084 -8.16015625 21.53222656 C-8.15883468 19.08691303 -8.15627233 16.64159979 -8.15234375 14.19628906 C-8.15639221 13.03170166 -8.16044067 11.86711426 -8.16461182 10.66723633 C-8.1583075 9.59272217 -8.15200317 8.51820801 -8.14550781 7.41113281 C-8.14391663 6.46230225 -8.14232544 5.51347168 -8.14068604 4.53588867 C-7.57859095 -0.50391986 -4.23414251 0.00617564 0 0 Z " fill="#F9FAFC" transform="translate(34.88671875,30.7412109375)"/>
<path d="M0 0 C3.3 0 6.6 0 10 0 C10 1.32 10 2.64 10 4 C6.7 4 3.4 4 0 4 C0 2.68 0 1.36 0 0 Z " fill="#4767A5" transform="translate(74,58)"/>
<path d="M0 0 C1.98 0 3.96 0 6 0 C6 1.98 6 3.96 6 6 C4.02 6 2.04 6 0 6 C0 4.02 0 2.04 0 0 Z " fill="#234B94" transform="translate(64,71)"/>
<path d="M0 0 C1.98 0 3.96 0 6 0 C6 1.98 6 3.96 6 6 C4.02 6 2.04 6 0 6 C0 4.02 0 2.04 0 0 Z " fill="#19428F" transform="translate(64,57)"/>
<path d="M0 0 C1.98 0 3.96 0 6 0 C6 1.98 6 3.96 6 6 C4.02 6 2.04 6 0 6 C0 4.02 0 2.04 0 0 Z " fill="#143E8D" transform="translate(37,57)"/>
<path d="M0 0 C1.98 0 3.96 0 6 0 C6 1.98 6 3.96 6 6 C4.02 6 2.04 6 0 6 C0 4.02 0 2.04 0 0 Z " fill="#234B94" transform="translate(64,43)"/>
<path d="M0 0 C3.63 0 7.26 0 11 0 C11 0.99 11 1.98 11 3 C7.37 3 3.74 3 0 3 C0 2.01 0 1.02 0 0 Z " fill="#1E4691" transform="translate(74,73)"/>
<path d="M0 0 C3.63 0 7.26 0 11 0 C11 0.99 11 1.98 11 3 C7.37 3 3.74 3 0 3 C0 2.01 0 1.02 0 0 Z " fill="#1E4691" transform="translate(74,44)"/>
<path d="M0 0 C3.3 0 6.6 0 10 0 C10 0.99 10 1.98 10 3 C6.7 3 3.4 3 0 3 C0 2.01 0 1.02 0 0 Z " fill="#0A3688" transform="translate(47,73)"/>
<path d="M0 0 C1.98 0 3.96 0 6 0 C6 1.65 6 3.3 6 5 C4.02 5 2.04 5 0 5 C0 3.35 0 1.7 0 0 Z " fill="#0A3688" transform="translate(37,72)"/>
<path d="M0 0 C3.3 0 6.6 0 10 0 C10 0.99 10 1.98 10 3 C6.7 3 3.4 3 0 3 C0 2.01 0 1.02 0 0 Z " fill="#0A3688" transform="translate(47,44)"/>
<path d="M0 0 C1.98 0 3.96 0 6 0 C6 1.65 6 3.3 6 5 C4.02 5 2.04 5 0 5 C0 3.35 0 1.7 0 0 Z " fill="#0A3688" transform="translate(37,43)"/>
</svg>
