<?xml version="1.0" encoding="UTF-8"?>
<svg version="1.1" xmlns="http://www.w3.org/2000/svg" width="120" height="120">
<path d="M0 0 C1.24003029 -0.01007584 1.24003029 -0.01007584 2.50511169 -0.02035522 C5.23157808 -0.03931557 7.957798 -0.04325855 10.68432617 -0.04541016 C12.58615723 -0.05183989 14.48798729 -0.05856838 16.38981628 -0.06558228 C20.37513521 -0.07755045 24.3603675 -0.08126361 28.34570312 -0.08007812 C33.43995969 -0.07987507 38.53365758 -0.10716589 43.62778187 -0.14162254 C47.55615261 -0.16391614 51.48438949 -0.1679149 55.412817 -0.16685867 C57.29020804 -0.16921136 59.16760295 -0.17801607 61.04493141 -0.19352341 C63.67748161 -0.21323159 66.30883468 -0.20732661 68.94140625 -0.1953125 C69.70895233 -0.20655151 70.47649841 -0.21779053 71.26730347 -0.22937012 C77.81823521 -0.1538182 82.96889668 1.92809386 87.90698242 6.25537109 C88.44581055 6.90634766 88.98463867 7.55732422 89.53979492 8.22802734 C90.0940918 8.87642578 90.64838867 9.52482422 91.21948242 10.19287109 C94.63215049 15.14585151 94.96221439 19.74307512 94.95532227 25.62573242 C94.96203949 26.45241928 94.96875671 27.27910614 94.97567749 28.13084412 C94.99463784 30.8573105 94.99858081 33.58353042 95.00073242 36.31005859 C95.00716215 38.21188965 95.01389065 40.11371972 95.02090454 42.01554871 C95.03287271 46.00086764 95.03658588 49.98609992 95.03540039 53.97143555 C95.03519733 59.06569211 95.06248816 64.15939 95.09694481 69.25351429 C95.11923841 73.18188503 95.12323716 77.11012191 95.12218094 81.03854942 C95.12453362 82.91594046 95.13333833 84.79333537 95.14884567 86.67066383 C95.16855385 89.30321403 95.16264887 91.9345671 95.15063477 94.56713867 C95.16187378 95.33468475 95.17311279 96.10223083 95.18469238 96.89303589 C95.10914047 103.44396763 93.0272284 108.5946291 88.69995117 113.53271484 C88.04897461 114.07154297 87.39799805 114.61037109 86.72729492 115.16552734 C86.07889648 115.71982422 85.43049805 116.27412109 84.76245117 116.84521484 C79.80947076 120.25788291 75.21224715 120.58794681 69.32958984 120.58105469 C68.50290298 120.58777191 67.67621613 120.59448914 66.82447815 120.60140991 C64.09801176 120.62037026 61.37179184 120.62431323 58.64526367 120.62646484 C56.74343262 120.63289458 54.84160255 120.63962307 52.93977356 120.64663696 C48.95445463 120.65860513 44.96922235 120.6623183 40.98388672 120.66113281 C35.88963015 120.66092975 30.79593226 120.68822058 25.70180798 120.72267723 C21.77343723 120.74497083 17.84520036 120.74896958 13.91677284 120.74791336 C12.03938181 120.75026604 10.1619869 120.75907076 8.28465843 120.77457809 C5.65210823 120.79428627 3.02075517 120.7883813 0.38818359 120.77636719 C-0.37936249 120.7876062 -1.14690857 120.79884521 -1.93771362 120.8104248 C-8.48864536 120.73487289 -13.63930683 118.65296082 -18.57739258 114.32568359 C-19.1162207 113.67470703 -19.65504883 113.02373047 -20.21020508 112.35302734 C-20.76450195 111.70462891 -21.31879883 111.05623047 -21.88989258 110.38818359 C-25.30256065 105.43520318 -25.63262455 100.83797957 -25.62573242 94.95532227 C-25.63244965 94.12863541 -25.63916687 93.30194855 -25.64608765 92.45021057 C-25.66504799 89.72374418 -25.66899097 86.99752427 -25.67114258 84.27099609 C-25.67757231 82.36916504 -25.6843008 80.46733497 -25.6913147 78.56550598 C-25.70328287 74.58018705 -25.70699604 70.59495477 -25.70581055 66.60961914 C-25.70560749 61.51536258 -25.73289831 56.42166468 -25.76735497 51.3275404 C-25.78964857 47.39916965 -25.79364732 43.47093278 -25.79259109 39.54250526 C-25.79494378 37.66511423 -25.80374849 35.78771932 -25.81925583 33.91039085 C-25.83896401 31.27784066 -25.83305903 28.64648759 -25.82104492 26.01391602 C-25.83228394 25.24636993 -25.84352295 24.47882385 -25.85510254 23.6880188 C-25.77955062 17.13708706 -23.69763856 11.98642559 -19.37036133 7.04833984 C-18.71938477 6.50951172 -18.0684082 5.97068359 -17.39770508 5.41552734 C-16.74930664 4.86123047 -16.1009082 4.30693359 -15.43286133 3.73583984 C-10.47988091 0.32317177 -5.8826573 -0.00689212 0 0 Z " fill="#002E83" transform="translate(25.335205078125,-0.29052734375)"/>
<path d="M0 0 C0.82773422 -0.01268417 1.65546844 -0.02536835 2.50828552 -0.03843689 C3.39895218 -0.03550125 4.28961884 -0.03256561 5.20727539 -0.02954102 C6.12577774 -0.03478287 7.04428009 -0.04002472 7.99061584 -0.04542542 C9.93318674 -0.05184886 11.87579651 -0.05050445 13.81835938 -0.04199219 C16.79050023 -0.03348856 19.76071544 -0.06222833 22.73266602 -0.09399414 C24.62003523 -0.0956064 26.50740785 -0.09502816 28.39477539 -0.09204102 C29.72773903 -0.10889198 29.72773903 -0.10889198 31.08763123 -0.12608337 C34.92000516 -0.08281475 37.17806181 -0.04815761 40.43286133 2.08691406 C42.19869766 4.93911839 42.34336982 6.63186279 42.29321289 9.97436523 C42.28064453 11.56571289 42.28064453 11.56571289 42.26782227 13.18920898 C42.23881836 14.29135742 42.20981445 15.39350586 42.17993164 16.52905273 C42.16542969 18.19387695 42.16542969 18.19387695 42.15063477 19.89233398 C42.03613465 28.06664672 42.03613465 28.06664672 40.86743164 30.40405273 C42.34856445 30.6940918 42.34856445 30.6940918 43.85961914 30.98999023 C45.14094727 31.25038086 46.42227539 31.51077148 47.74243164 31.77905273 C49.01860352 32.03428711 50.29477539 32.28952148 51.60961914 32.55249023 C54.86743164 33.40405273 54.86743164 33.40405273 56.86743164 35.40405273 C57.31573397 38.46605724 57.19148271 41.56298675 57.17993164 44.65405273 C57.19604492 45.5009668 57.2121582 46.34788086 57.22875977 47.22045898 C57.23273542 52.33314917 56.89890786 56.08978343 53.86743164 60.40405273 C49.21124634 64.49357619 45.43338469 65.08738123 39.49243164 64.96655273 C38.73583252 64.9555957 37.9792334 64.94463867 37.19970703 64.93334961 C31.22589777 64.70083027 27.27017686 63.60437289 22.86743164 59.40405273 C22.17262695 58.7762793 21.47782227 58.14850586 20.76196289 57.50170898 C16.89968713 53.83641632 13.30018713 50.16379174 10.86743164 45.40405273 C11.02458727 41.94662889 11.40978607 40.86169831 13.86743164 38.40405273 C19.20076497 38.0707194 19.20076497 38.0707194 21.86743164 39.40405273 C22.19743164 37.09405273 22.52743164 34.78405273 22.86743164 32.40405273 C21.71742676 32.43547363 21.71742676 32.43547363 20.54418945 32.4675293 C17.06873704 32.55070432 13.59349401 32.60271848 10.11743164 32.65405273 C8.91086914 32.68756836 7.70430664 32.72108398 6.46118164 32.75561523 C5.30102539 32.76850586 4.14086914 32.78139648 2.94555664 32.79467773 C1.34309082 32.82609863 1.34309082 32.82609863 -0.29174805 32.8581543 C-3.13256836 32.40405273 -3.13256836 32.40405273 -5.48144531 30.73925781 C-7.53644658 27.83284244 -7.63517157 26.18874537 -7.62866211 22.65014648 C-7.62930664 21.54864258 -7.62995117 20.44713867 -7.63061523 19.31225586 C-7.61063477 18.16692383 -7.5906543 17.0215918 -7.57006836 15.84155273 C-7.5771582 14.69235352 -7.58424805 13.5431543 -7.59155273 12.35913086 C-7.52723347 3.91351637 -7.52723347 3.91351637 -5.86560059 1.76855469 C-3.74135154 0.09602839 -2.67908354 0.01989974 0 0 Z " fill="#F5F7FA" transform="translate(35.132568359375,27.595947265625)"/>
<path d="M0 0 C1.32 0.33 2.64 0.66 4 1 C4 8.26 4 15.52 4 23 C4.99 23 5.98 23 7 23 C7 20.03 7 17.06 7 14 C8.32 13.67 9.64 13.34 11 13 C12 14 12 14 12.09765625 16.06640625 C12.08605469 16.89011719 12.07445313 17.71382812 12.0625 18.5625 C12.05347656 19.38878906 12.04445313 20.21507813 12.03515625 21.06640625 C12.02355469 21.70449219 12.01195313 22.34257813 12 23 C12.99 23 13.98 23 15 23 C15 20.36 15 17.72 15 15 C16.32 15 17.64 15 19 15 C19 17.64 19 20.28 19 23 C19.99 23 20.98 23 22 23 C22 21.35 22 19.7 22 18 C23.65 17.67 25.3 17.34 27 17 C27.08144943 19.70894767 27.14070614 22.41541263 27.1875 25.125 C27.21263672 25.88554688 27.23777344 26.64609375 27.26367188 27.4296875 C27.32735318 32.35437529 26.84720099 35.78998146 24 40 C18.96945284 43.96905556 10.02696061 42.66632732 4 42 C0.5574656 40.61137032 -1.51548173 38.71744186 -4 36 C-4.7425 35.26523438 -5.485 34.53046875 -6.25 33.7734375 C-11.93105136 27.87540154 -11.93105136 27.87540154 -12.21875 24.22265625 C-12.1465625 23.48917969 -12.074375 22.75570312 -12 22 C-7.62853208 22.48571866 -5.9591701 23.83674921 -3 27 C-2.34 27 -1.68 27 -1 27 C-0.67 18.09 -0.34 9.18 0 0 Z " fill="#043185" transform="translate(62,47)"/>
<path d="M0 0 C1.0209375 0.2165625 1.0209375 0.2165625 2.0625 0.4375 C4.2559952 0.857531 6.46970587 1.17437188 8.6875 1.4375 C12 2 12 2 14 4 C14.44830233 7.06200451 14.32405107 10.15893401 14.3125 13.25 C14.32861328 14.09691406 14.34472656 14.94382812 14.36132812 15.81640625 C14.36530378 20.92909644 14.03147622 24.68573069 11 29 C6.3438147 33.08952346 2.56595305 33.68332849 -3.375 33.5625 C-4.13159912 33.55154297 -4.88819824 33.54058594 -5.66772461 33.52929688 C-11.64153387 33.29677754 -15.59725478 32.20032015 -20 28 C-21.04220703 27.05833984 -21.04220703 27.05833984 -22.10546875 26.09765625 C-25.96774452 22.43236358 -29.56724451 18.75973901 -32 14 C-31.84284437 10.54257615 -31.45764557 9.45764557 -29 7 C-28.01 7.33 -27.02 7.66 -26 8 C-26.39058594 9.55460937 -26.39058594 9.55460937 -26.7890625 11.140625 C-27.38002442 15.04777893 -27.38002442 15.04777893 -25.0859375 17.984375 C-24.19132812 18.89703125 -23.29671875 19.8096875 -22.375 20.75 C-21.49585938 21.67296875 -20.61671875 22.5959375 -19.7109375 23.546875 C-14.50703601 28.25588096 -10.92741689 29.47267225 -3.9375 29.3125 C-2.87692383 29.31733398 -2.87692383 29.31733398 -1.79492188 29.32226562 C3.467343 29.31350788 3.467343 29.31350788 8 27 C10.50555214 22.70823166 10.43012723 18.03090024 10.625 13.1875 C10.66367188 12.39923828 10.70234375 11.61097656 10.7421875 10.79882812 C10.83588844 8.8662462 10.91900779 6.93315624 11 5 C9.68 5.33 8.36 5.66 7 6 C6.67 7.65 6.34 9.3 6 11 C5.01 11 4.02 11 3 11 C3 8.36 3 5.72 3 3 C1.68 2.67 0.36 2.34 -1 2 C-0.67 1.34 -0.34 0.68 0 0 Z " fill="#ECEFF6" transform="translate(78,59)"/>
<path d="M0 0 C7 1 7 1 9 3 C9.66364834 7.8616099 9.96271742 12.46678337 7.3125 16.6875 C5 18 5 18 0 18 C0 12.06 0 6.12 0 0 Z " fill="#1D4691" transform="translate(49,35)"/>
<path d="M0 0 C1.32 0.33 2.64 0.66 4 1 C5.32 6.61 6.64 12.22 8 18 C6.68 18 5.36 18 4 18 C4 17.01 4 16.02 4 15 C2.35 15 0.7 15 -1 15 C-1 15.99 -1 16.98 -1 18 C-1.99 18 -2.98 18 -4 18 C-3.41632611 11.69632197 -1.95928381 6.01339937 0 0 Z " fill="#2B5197" transform="translate(40,35)"/>
<path d="M0 0 C3.95820859 0.56545837 6.6659053 1.80902348 10 4 C9.01 4.66 8.02 5.32 7 6 C6.27034634 8.56282742 6.27034634 8.56282742 6 11 C5.01 11 4.02 11 3 11 C3 8.36 3 5.72 3 3 C1.68 2.67 0.36 2.34 -1 2 C-0.67 1.34 -0.34 0.68 0 0 Z " fill="#E0E6F0" transform="translate(78,59)"/>
<path d="M0 0 C0.763125 0.20625 1.52625 0.4125 2.3125 0.625 C1.9825 1.615 1.6525 2.605 1.3125 3.625 C-0.0075 3.295 -1.3275 2.965 -2.6875 2.625 C-1.6975 4.605 -0.7075 6.585 0.3125 8.625 C-1.3375 8.295 -2.9875 7.965 -4.6875 7.625 C-5.0175 5.645 -5.3475 3.665 -5.6875 1.625 C-2.6875 -0.375 -2.6875 -0.375 0 0 Z " fill="#163F8D" transform="translate(65.6875,35.375)"/>
<path d="M0 0 C0.99 0.33 1.98 0.66 3 1 C3 4.3 3 7.6 3 11 C2.01 11.33 1.02 11.66 0 12 C0 8.04 0 4.08 0 0 Z " fill="#CDD6E7" transform="translate(52,38)"/>
</svg>
