<?xml version="1.0" encoding="UTF-8"?>
<svg version="1.1" xmlns="http://www.w3.org/2000/svg" width="120" height="120">
<path d="M0 0 C1.24003029 -0.01007584 1.24003029 -0.01007584 2.50511169 -0.02035522 C5.23157808 -0.03931557 7.957798 -0.04325855 10.68432617 -0.04541016 C12.58615723 -0.05183989 14.48798729 -0.05856838 16.38981628 -0.06558228 C20.37513521 -0.07755045 24.3603675 -0.08126361 28.34570312 -0.08007812 C33.43995969 -0.07987507 38.53365758 -0.10716589 43.62778187 -0.14162254 C47.55615261 -0.16391614 51.48438949 -0.1679149 55.412817 -0.16685867 C57.29020804 -0.16921136 59.16760295 -0.17801607 61.04493141 -0.19352341 C63.67748161 -0.21323159 66.30883468 -0.20732661 68.94140625 -0.1953125 C69.70895233 -0.20655151 70.47649841 -0.21779053 71.26730347 -0.22937012 C77.81823521 -0.1538182 82.96889668 1.92809386 87.90698242 6.25537109 C88.44581055 6.90634766 88.98463867 7.55732422 89.53979492 8.22802734 C90.0940918 8.87642578 90.64838867 9.52482422 91.21948242 10.19287109 C94.63215049 15.14585151 94.96221439 19.74307512 94.95532227 25.62573242 C94.96203949 26.45241928 94.96875671 27.27910614 94.97567749 28.13084412 C94.99463784 30.8573105 94.99858081 33.58353042 95.00073242 36.31005859 C95.00716215 38.21188965 95.01389065 40.11371972 95.02090454 42.01554871 C95.03287271 46.00086764 95.03658588 49.98609992 95.03540039 53.97143555 C95.03519733 59.06569211 95.06248816 64.15939 95.09694481 69.25351429 C95.11923841 73.18188503 95.12323716 77.11012191 95.12218094 81.03854942 C95.12453362 82.91594046 95.13333833 84.79333537 95.14884567 86.67066383 C95.16855385 89.30321403 95.16264887 91.9345671 95.15063477 94.56713867 C95.16187378 95.33468475 95.17311279 96.10223083 95.18469238 96.89303589 C95.10914047 103.44396763 93.0272284 108.5946291 88.69995117 113.53271484 C88.04897461 114.07154297 87.39799805 114.61037109 86.72729492 115.16552734 C86.07889648 115.71982422 85.43049805 116.27412109 84.76245117 116.84521484 C79.80947076 120.25788291 75.21224715 120.58794681 69.32958984 120.58105469 C68.50290298 120.58777191 67.67621613 120.59448914 66.82447815 120.60140991 C64.09801176 120.62037026 61.37179184 120.62431323 58.64526367 120.62646484 C56.74343262 120.63289458 54.84160255 120.63962307 52.93977356 120.64663696 C48.95445463 120.65860513 44.96922235 120.6623183 40.98388672 120.66113281 C35.88963015 120.66092975 30.79593226 120.68822058 25.70180798 120.72267723 C21.77343723 120.74497083 17.84520036 120.74896958 13.91677284 120.74791336 C12.03938181 120.75026604 10.1619869 120.75907076 8.28465843 120.77457809 C5.65210823 120.79428627 3.02075517 120.7883813 0.38818359 120.77636719 C-0.37936249 120.7876062 -1.14690857 120.79884521 -1.93771362 120.8104248 C-8.48864536 120.73487289 -13.63930683 118.65296082 -18.57739258 114.32568359 C-19.1162207 113.67470703 -19.65504883 113.02373047 -20.21020508 112.35302734 C-20.76450195 111.70462891 -21.31879883 111.05623047 -21.88989258 110.38818359 C-25.30256065 105.43520318 -25.63262455 100.83797957 -25.62573242 94.95532227 C-25.63244965 94.12863541 -25.63916687 93.30194855 -25.64608765 92.45021057 C-25.66504799 89.72374418 -25.66899097 86.99752427 -25.67114258 84.27099609 C-25.67757231 82.36916504 -25.6843008 80.46733497 -25.6913147 78.56550598 C-25.70328287 74.58018705 -25.70699604 70.59495477 -25.70581055 66.60961914 C-25.70560749 61.51536258 -25.73289831 56.42166468 -25.76735497 51.3275404 C-25.78964857 47.39916965 -25.79364732 43.47093278 -25.79259109 39.54250526 C-25.79494378 37.66511423 -25.80374849 35.78771932 -25.81925583 33.91039085 C-25.83896401 31.27784066 -25.83305903 28.64648759 -25.82104492 26.01391602 C-25.83228394 25.24636993 -25.84352295 24.47882385 -25.85510254 23.6880188 C-25.77955062 17.13708706 -23.69763856 11.98642559 -19.37036133 7.04833984 C-18.71938477 6.50951172 -18.0684082 5.97068359 -17.39770508 5.41552734 C-16.74930664 4.86123047 -16.1009082 4.30693359 -15.43286133 3.73583984 C-10.47988091 0.32317177 -5.8826573 -0.00689212 0 0 Z " fill="#002E83" transform="translate(25.335205078125,-0.29052734375)"/>
<path d="M0 0 C2.22593912 0.76977117 3.4764916 1.63783778 5.23681641 3.18554688 C5.80142578 3.67410156 6.36603516 4.16265625 6.94775391 4.66601562 C7.52525391 5.17777344 8.10275391 5.68953125 8.69775391 6.21679688 C12.62500892 9.83839634 12.62500892 9.83839634 17.07275391 12.71679688 C17.07275391 11.06679688 17.07275391 9.41679688 17.07275391 7.71679688 C19.07230137 7.67425331 21.07317027 7.67598905 23.07275391 7.71679688 C24.76577754 9.40982051 24.27790661 11.71366237 24.38525391 14.02929688 C24.68089446 18.52583812 24.68089446 18.52583812 27.13525391 22.21679688 C28.09431641 22.95929687 28.09431641 22.95929687 29.07275391 23.71679688 C29.07275391 24.70679687 29.07275391 25.69679688 29.07275391 26.71679688 C27.42275391 27.04679687 25.77275391 27.37679687 24.07275391 27.71679688 C24.08846436 28.57958252 24.1041748 29.44236816 24.12036133 30.33129883 C24.17151345 33.53488954 24.20911551 36.73827203 24.23754883 39.94213867 C24.25262788 41.32827607 24.27309441 42.71436582 24.29907227 44.1003418 C24.33549106 46.09337834 24.35088409 48.0867641 24.36572266 50.08007812 C24.38143311 51.27930908 24.39714355 52.47854004 24.41333008 53.71411133 C24.07275391 56.71679688 24.07275391 56.71679688 22.82894897 58.38020325 C20.61203094 60.06744094 19.40054903 60.09658441 16.63305664 60.10498047 C15.73880478 60.11443695 14.84455292 60.12389343 13.92320251 60.13363647 C12.96064041 60.12756378 11.99807831 60.12149109 11.00634766 60.11523438 C10.01651382 60.11810455 9.02667999 60.12097473 8.0068512 60.12393188 C5.91463651 60.12597344 3.82240278 60.12043721 1.73022461 60.10791016 C-1.48090024 60.09184114 -4.69076959 60.10776484 -7.90185547 60.12695312 C-9.93245722 60.12497104 -11.96305818 60.1211281 -13.99365234 60.11523438 C-14.95823868 60.12130707 -15.92282501 60.12737976 -16.91664124 60.13363647 C-17.80774094 60.12417999 -18.69884064 60.11472351 -19.61694336 60.10498047 C-20.40287369 60.10259369 -21.18880402 60.10020691 -21.99855042 60.0977478 C-22.63501999 59.972034 -23.27148956 59.84632019 -23.92724609 59.71679688 C-26.38010906 56.03750243 -26.15953488 54.24301781 -26.12255859 49.86132812 C-26.11831375 48.86887337 -26.11831375 48.86887337 -26.11398315 47.85636902 C-26.10280528 45.7471595 -26.0777059 43.63837763 -26.05224609 41.52929688 C-26.04221316 40.09766239 -26.03308786 38.66602124 -26.02490234 37.234375 C-26.00287405 33.72837711 -25.96836095 30.22262874 -25.92724609 26.71679688 C-27.57724609 26.38679688 -29.22724609 26.05679688 -30.92724609 25.71679688 C-30.92724609 24.72679688 -30.92724609 23.73679687 -30.92724609 22.71679688 C-28.90557482 20.92244996 -26.90588557 19.31960421 -24.73974609 17.71679688 C-23.45807244 16.74250039 -22.1781685 15.76587218 -20.89990234 14.78710938 C-20.2426416 14.28469727 -19.58538086 13.78228516 -18.90820312 13.26464844 C-15.17693899 10.34916721 -11.60023925 7.25162575 -8.01635742 4.15820312 C-2.70979798 -0.39819681 -2.70979798 -0.39819681 0 0 Z " fill="#E2E7F1" transform="translate(60.92724609375,30.283203125)"/>
<path d="M0 0 C1.65 0 3.3 0 5 0 C5.061875 0.5775 5.12375 1.155 5.1875 1.75 C6.31009662 4.85872909 8.4538474 5.97613511 11 8 C11 8.99 11 9.98 11 11 C9.68 11 8.36 11 7 11 C6.67 10.34 6.34 9.68 6 9 C4.02 9 2.04 9 0 9 C0.33 9.99 0.66 10.98 1 12 C3.03538947 12.91404105 3.03538947 12.91404105 5.4375 13.5 C9.78082192 14.67123288 9.78082192 14.67123288 12 18 C11.78241359 20.9011521 11.37826195 22.52306101 9.5625 24.8125 C8 26 8 26 6 26 C6 27.32 6 28.64 6 30 C4.02 30 2.04 30 0 30 C0 28.68 0 27.36 0 26 C-0.928125 25.9071875 -0.928125 25.9071875 -1.875 25.8125 C-4 25 -4 25 -5.25 22.4375 C-5.4975 21.633125 -5.745 20.82875 -6 20 C-4.35 20 -2.7 20 -1 20 C-0.67 20.99 -0.34 21.98 0 23 C3.465 22.505 3.465 22.505 7 22 C6.67 21.01 6.34 20.02 6 19 C3.96461053 18.08595895 3.96461053 18.08595895 1.5625 17.5 C-2.78082192 16.32876712 -2.78082192 16.32876712 -5 13 C-5.375 10.5625 -5.375 10.5625 -5 8 C-3.70896357 6.6256709 -2.3743291 5.29103643 -1 4 C-0.2127322 1.8618034 -0.2127322 1.8618034 0 0 Z " fill="#133D8C" transform="translate(57,51)"/>
</svg>
