<?xml version="1.0" encoding="UTF-8"?>
<svg version="1.1" xmlns="http://www.w3.org/2000/svg" width="335" height="88">
<path d="M0 0 C3.7881788 0.68296493 6.69515513 2.3832968 10 4.3125 C11.546875 5.20388672 11.546875 5.20388672 13.125 6.11328125 C17.99270698 9.30771396 17.99270698 9.30771396 20 12 C20.63759737 15.26088401 20.63199834 18.48958822 20.63671875 21.8046875 C20.64766068 22.76142365 20.6586026 23.71815979 20.6698761 24.70388794 C20.68573097 26.72620257 20.69094062 28.74862469 20.6862793 30.77099609 C20.68749342 33.85826969 20.74723942 36.94079748 20.81054688 40.02734375 C20.81868969 41.99478009 20.82336101 43.96223449 20.82421875 45.9296875 C20.84779953 46.84861786 20.87138031 47.76754822 20.89567566 48.71432495 C20.80676604 54.94378359 20.80676604 54.94378359 18.60765076 57.82286072 C16.81982988 59.40982507 15.01637382 60.71832243 13 62 C11.96061279 62.67393799 10.92122559 63.34787598 9.8503418 64.04223633 C8.81047119 64.63286865 7.77060059 65.22350098 6.69921875 65.83203125 C5.55775391 66.48494141 4.41628906 67.13785156 3.24023438 67.81054688 C2.05605792 68.47798584 0.87181239 69.14530227 -0.3125 69.8125 C-1.51666306 70.49867022 -2.72044228 71.1855145 -3.92382812 71.87304688 C-16.68021 79.13860679 -16.68021 79.13860679 -23 78 C-25.31 76.68 -27.62 75.36 -30 74 C-30 63.44 -30 52.88 -30 42 C-22.74 42 -15.48 42 -8 42 C-8 47.28 -8 52.56 -8 58 C-2.80942241 58 1.09748502 57.980503 6 57 C6.1015993 50.27405734 6.17154911 43.54831332 6.21972656 36.82177734 C6.23981517 34.53459274 6.26709128 32.24745932 6.30175781 29.96044922 C6.35039558 26.66881666 6.37299679 23.37786443 6.390625 20.0859375 C6.42159271 18.55747696 6.42159271 18.55747696 6.45318604 16.99813843 C6.45504433 11.09005287 5.95067633 7.69177252 2 3 C1.34 2.01 0.68 1.02 0 0 Z " fill="#FEFEFE" transform="translate(58,10)"/>
<path d="M0 0 C2.31 1.32 4.62 2.64 7 4 C7 14.56 7 25.12 7 36 C-0.26 36 -7.52 36 -15 36 C-15 30.72 -15 25.44 -15 20 C-20.19057759 20 -24.09748502 20.019497 -29 21 C-29.1015993 27.72594266 -29.17154911 34.45168668 -29.21972656 41.17822266 C-29.23981517 43.46540726 -29.26709128 45.75254068 -29.30175781 48.03955078 C-29.35039558 51.33118334 -29.37299679 54.62213557 -29.390625 57.9140625 C-29.41127014 58.93303619 -29.43191528 59.95200989 -29.45318604 61.00186157 C-29.45504433 66.90994713 -28.95067633 70.30822748 -25 75 C-24.34 75.99 -23.68 76.98 -23 78 C-26.7881788 77.31703507 -29.69515513 75.6167032 -33 73.6875 C-34.03125 73.09324219 -35.0625 72.49898438 -36.125 71.88671875 C-40.99270698 68.69228604 -40.99270698 68.69228604 -43 66 C-43.63759737 62.73911599 -43.63199834 59.51041178 -43.63671875 56.1953125 C-43.64766068 55.23857635 -43.6586026 54.28184021 -43.6698761 53.29611206 C-43.68573097 51.27379743 -43.69094062 49.25137531 -43.6862793 47.22900391 C-43.68749342 44.14173031 -43.74723942 41.05920252 -43.81054688 37.97265625 C-43.81868969 36.00521991 -43.82336101 34.03776551 -43.82421875 32.0703125 C-43.84779953 31.15138214 -43.87138031 30.23245178 -43.89567566 29.28567505 C-43.80676604 23.05621641 -43.80676604 23.05621641 -41.60765076 20.17713928 C-39.81982988 18.59017493 -38.01637382 17.28167757 -36 16 C-34.96061279 15.32606201 -33.92122559 14.65212402 -32.8503418 13.95776367 C-31.81047119 13.36713135 -30.77060059 12.77649902 -29.69921875 12.16796875 C-28.55775391 11.51505859 -27.41628906 10.86214844 -26.24023438 10.18945312 C-25.05605792 9.52201416 -23.87181239 8.85469773 -22.6875 8.1875 C-21.48333694 7.50132978 -20.27955772 6.8144855 -19.07617188 6.12695312 C-6.31979 -1.13860679 -6.31979 -1.13860679 0 0 Z " fill="#FEFEFE" transform="translate(43,0)"/>
<path d="M0 0 C0.00364563 0.60055206 0.00729126 1.20110413 0.01104736 1.81985474 C0.05292452 8.08211682 0.12230678 14.34364956 0.20751953 20.60546875 C0.23570929 22.94100645 0.2569337 25.2766392 0.27099609 27.61230469 C0.29245246 30.97380159 0.33911906 34.33415807 0.390625 37.6953125 C0.39185364 38.73615997 0.39308228 39.77700745 0.39434814 40.84939575 C0.51645695 46.92159605 1.06413154 50.32097622 5 55 C5.66 55.99 6.32 56.98 7 58 C3.2118212 57.31703507 0.30484487 55.6167032 -3 53.6875 C-4.03125 53.09324219 -5.0625 52.49898437 -6.125 51.88671875 C-10.95622745 48.71622574 -10.95622745 48.71622574 -13 46 C-13.58895019 42.91630227 -13.53667722 39.87735108 -13.49609375 36.74609375 C-13.4982766 35.4001992 -13.4982766 35.4001992 -13.50050354 34.02711487 C-13.49884579 32.13335924 -13.48729837 30.23958998 -13.46655273 28.34594727 C-13.43756737 25.44424395 -13.44595203 22.54436428 -13.45898438 19.64257812 C-13.45274775 17.80207444 -13.44435741 15.96157653 -13.43359375 14.12109375 C-13.43652939 13.25230087 -13.43946503 12.383508 -13.44248962 11.48838806 C-13.42980545 10.68067459 -13.41712128 9.87296112 -13.40405273 9.04077148 C-13.39864975 8.33113754 -13.39324677 7.6215036 -13.38768005 6.8903656 C-12.8854633 4.44150792 -11.91908893 3.55289549 -10 2 C-8.02734375 1.26953125 -8.02734375 1.26953125 -5.9375 0.8125 C-5.24527344 0.65394531 -4.55304687 0.49539062 -3.83984375 0.33203125 C-2 0 -2 0 0 0 Z " fill="#C9C9C9" transform="translate(13,20)"/>
<path d="M0 0 C3.7881788 0.68296493 6.69515513 2.3832968 10 4.3125 C11.546875 5.20388672 11.546875 5.20388672 13.125 6.11328125 C17.95622745 9.28377426 17.95622745 9.28377426 20 12 C20.58895019 15.08369773 20.53667722 18.12264892 20.49609375 21.25390625 C20.49754898 22.15116928 20.49900421 23.04843231 20.50050354 23.97288513 C20.49884579 25.86664076 20.48729837 27.76041002 20.46655273 29.65405273 C20.43756737 32.55575605 20.44595203 35.45563572 20.45898438 38.35742188 C20.45274775 40.19792556 20.44435741 42.03842347 20.43359375 43.87890625 C20.43652939 44.74769913 20.43946503 45.616492 20.44248962 46.51161194 C20.42346336 47.72318214 20.42346336 47.72318214 20.40405273 48.95922852 C20.39864975 49.66886246 20.39324677 50.3784964 20.38768005 51.1096344 C19.86708381 53.64811224 19.08163609 54.47065597 17 56 C14.51953125 56.73046875 14.51953125 56.73046875 11.8125 57.1875 C10.91144531 57.34605469 10.01039062 57.50460938 9.08203125 57.66796875 C8.39496094 57.77753906 7.70789063 57.88710937 7 58 C6.99635437 57.39944794 6.99270874 56.79889587 6.98895264 56.18014526 C6.94707548 49.91788318 6.87769322 43.65635044 6.79248047 37.39453125 C6.76429071 35.05899355 6.7430663 32.7233608 6.72900391 30.38769531 C6.70754754 27.02619841 6.66088094 23.66584193 6.609375 20.3046875 C6.60814636 19.26384003 6.60691772 18.22299255 6.60565186 17.15060425 C6.48354305 11.07840395 5.93586846 7.67902378 2 3 C1.34 2.01 0.68 1.02 0 0 Z " fill="#C9C9C9" transform="translate(58,10)"/>
<path d="M0 0 C2.75791587 2.39713191 3.91586728 4.73108753 5.26171875 8.10546875 C5.65810547 9.08837891 6.05449219 10.07128906 6.46289062 11.08398438 C6.86701172 12.10814453 7.27113281 13.13230469 7.6875 14.1875 C8.10322266 15.22326172 8.51894531 16.25902344 8.94726562 17.32617188 C9.97173357 19.88145399 10.98899844 22.4393667 12 25 C9.69 25 7.38 25 5 25 C4.505 23.02 4.505 23.02 4 21 C1.36 21 -1.28 21 -4 21 C-4.33 22.32 -4.66 23.64 -5 25 C-16.63856502 25.92017937 -16.63856502 25.92017937 -19.9765625 23.6640625 C-21.3125 22 -21.3125 22 -23 19 C-23.99 20.98 -24.98 22.96 -26 25 C-28.31 25 -30.62 25 -33 25 C-31.89754055 21.87636489 -30.75888726 19.67851634 -28.75 17 C-26.6723738 14.20057547 -26.6723738 14.20057547 -27.5 11.5 C-28.65667222 9.57221297 -29.8779415 7.68308776 -31.125 5.8125 C-33 3 -33 3 -33 1 C-29.75 0.625 -29.75 0.625 -26 1 C-23.5625 4 -23.5625 4 -22 7 C-21.484375 6.01 -20.96875 5.02 -20.4375 4 C-19.633125 3.01 -18.82875 2.02 -18 1 C-14.25 0.625 -14.25 0.625 -11 1 C-11.44472656 1.74765625 -11.88945312 2.4953125 -12.34765625 3.265625 C-12.91355469 4.25046875 -13.47945312 5.2353125 -14.0625 6.25 C-14.63097656 7.22453125 -15.19945312 8.1990625 -15.78515625 9.203125 C-17.18810059 11.82573379 -17.18810059 11.82573379 -16.8125 14.1640625 C-15.5590418 16.99639594 -13.72714597 19.43713824 -12 22 C-12 22.66 -12 23.32 -12 24 C-11.34 24 -10.68 24 -10 24 C-9.4740625 22.2365625 -9.4740625 22.2365625 -8.9375 20.4375 C-6.60044595 13.35826832 -3.22527419 6.70680304 0 0 Z M0 13 C-0.33 13.99 -0.66 14.98 -1 16 C-0.01 15.67 0.98 15.34 2 15 C1.34 14.34 0.68 13.68 0 13 Z " fill="#FFFFFF" transform="translate(167,11)"/>
<path d="M0 0 C82.5 0 165 0 250 0 C250 0.66 250 1.32 250 2 C167.5 2 85 2 0 2 C0 1.34 0 0.68 0 0 Z " fill="#FFFFFF" transform="translate(85,49)"/>
<path d="M0 0 C3.51977994 3.51977994 6.09115077 6.31051584 8.8125 10.3125 C9.41707031 11.19550781 10.02164062 12.07851563 10.64453125 12.98828125 C11.09183594 13.65214844 11.53914063 14.31601562 12 15 C16.25947533 11.1277497 19.34122037 6.78535663 22.546875 2.01171875 C23.26617187 1.01591797 23.26617187 1.01591797 24 0 C24.33 0 24.66 0 25 0 C25 8.25 25 16.5 25 25 C23.35 25 21.7 25 20 25 C19.67 22.36 19.34 19.72 19 17 C17.02 19.64 15.04 22.28 13 25 C11 23 9 21 7 19 C6.67 20.98 6.34 22.96 6 25 C4.02 25 2.04 25 0 25 C0 16.75 0 8.5 0 0 Z " fill="#FFFFFF" transform="translate(260,11)"/>
<path d="M0 0 C13.96551724 0 13.96551724 0 18 3 C21.1805499 6.60462322 21.56954504 10.12319564 21.4296875 14.77734375 C20.69387346 18.58350909 18.77545759 20.35670706 16 23 C11.53794887 25.23102556 4.78092876 24.04346299 0 24 C0 16.08 0 8.16 0 0 Z M6 5 C6 9.62 6 14.24 6 19 C11.01535052 18.67039784 11.01535052 18.67039784 15 16 C15.45935016 11.94312801 15.45935016 11.94312801 15 8 C11.80434964 5.15942191 10.3252957 5 6 5 Z " fill="#FFFFFF" transform="translate(181,12)"/>
<path d="M0 0 C5.61 0 11.22 0 17 0 C17 1.65 17 3.3 17 5 C13.37 5 9.74 5 6 5 C6 6.65 6 8.3 6 10 C9.3 10 12.6 10 16 10 C16 11.65 16 13.3 16 15 C12.7 15 9.4 15 6 15 C6 16.32 6 17.64 6 19 C9.96 19 13.92 19 18 19 C18 20.65 18 22.3 18 24 C12.06 24 6.12 24 0 24 C0 16.08 0 8.16 0 0 Z " fill="#FFFFFF" transform="translate(114,12)"/>
<path d="M0 0 C5.61 0 11.22 0 17 0 C17 1.65 17 3.3 17 5 C13.04 5 9.08 5 5 5 C5 6.65 5 8.3 5 10 C8.63 10 12.26 10 16 10 C16 11.65 16 13.3 16 15 C12.37 15 8.74 15 5 15 C5 16.32 5 17.64 5 19 C8.96 19 12.92 19 17 19 C17 20.65 17 22.3 17 24 C11.39 24 5.78 24 0 24 C0 16.08 0 8.16 0 0 Z " fill="#FFFFFF" transform="translate(206,12)"/>
<path d="M0 0 C1.65 0 3.3 0 5 0 C5 3.3 5 6.6 5 10 C8.3 10 11.6 10 15 10 C15 6.7 15 3.4 15 0 C16.65 0 18.3 0 20 0 C20 7.92 20 15.84 20 24 C18.35 24 16.7 24 15 24 C15 21.03 15 18.06 15 15 C11.7 15 8.4 15 5 15 C5 17.97 5 20.94 5 24 C3.35 24 1.7 24 0 24 C0 16.08 0 8.16 0 0 Z " fill="#FFFFFF" transform="translate(89,12)"/>
<path d="M0 0 C2.16372228 2.71225533 3.70337668 5.27978567 5.04296875 8.4765625 C5.56987305 9.72953125 5.56987305 9.72953125 6.10742188 11.0078125 C6.64206055 12.30332031 6.64206055 12.30332031 7.1875 13.625 C7.55552734 14.49640625 7.92355469 15.3678125 8.30273438 16.265625 C11 22.73105577 11 22.73105577 11 25 C9.02 25 7.04 25 5 25 C4.67 23.68 4.34 22.36 4 21 C1.36 21 -1.28 21 -4 21 C-4.33 22.32 -4.66 23.64 -5 25 C-6.98 25 -8.96 25 -11 25 C-7.85216578 16.3643486 -4.26853566 8.14102162 0 0 Z M-1 13 C-1.33 13.99 -1.66 14.98 -2 16 C-1.01 16 -0.02 16 1 16 C0.67 15.01 0.34 14.02 0 13 C-0.33 13 -0.66 13 -1 13 Z " fill="#FFFFFF" transform="translate(299,11)"/>
<path d="M0 0 C0.99 0.33 1.98 0.66 3 1 C2.67 2.98 2.34 4.96 2 7 C0.01432292 6.67447917 -1.97135417 6.34895833 -3.95703125 6.0234375 C-6.31755824 5.80422152 -6.31755824 5.80422152 -9 8 C-9.43827201 9.90457929 -9.43827201 9.90457929 -9.3125 12 C-9.30863281 12.70125 -9.30476562 13.4025 -9.30078125 14.125 C-9.14912946 16.2416577 -9.14912946 16.2416577 -7 18 C-4.78927023 18.24253813 -4.78927023 18.24253813 -2.375 18.125 C-1.55773437 18.10695313 -0.74046875 18.08890625 0.1015625 18.0703125 C1.04128906 18.03550781 1.04128906 18.03550781 2 18 C2.66 19.65 3.32 21.3 4 23 C-0.63542806 25.54200894 -5.01711823 25.42625964 -10 24 C-12.70552388 21.80176185 -14.44778333 20.10443333 -16 17 C-16.43540712 12.73803412 -16.47065428 9.08250484 -14.75 5.125 C-10.32712716 -0.24563131 -6.76447334 -0.64779487 0 0 Z " fill="#FFFFFF" transform="translate(242,12)"/>
<path d="M0 0 C1.65 0 3.3 0 5 0 C5.99 2.31 6.98 4.62 8 7 C8.74957157 3.52852158 8.74957157 3.52852158 9 0 C10.65 0 12.3 0 14 0 C14.99 2.31 15.98 4.62 17 7 C17.66 4.69 18.32 2.38 19 0 C20.65 0 22.3 0 24 0 C22.17778624 6.61242722 19.94776396 12.80520671 17 19 C14.77810176 16.77810176 14.07401108 14.91517292 13 12 C12.3503125 12.8971875 12.3503125 12.8971875 11.6875 13.8125 C10.22273699 15.71126687 8.70952818 17.32878057 7 19 C5.82905995 16.2100561 4.66309073 13.41821403 3.5 10.625 C2.99919922 9.43390625 2.99919922 9.43390625 2.48828125 8.21875 C2.17246094 7.45820312 1.85664063 6.69765625 1.53125 5.9140625 C1.23798828 5.2123291 0.94472656 4.5105957 0.64257812 3.78759766 C0 2 0 2 0 0 Z " fill="#FFFFFF" transform="translate(149,60)"/>
<path d="M0 0 C3.24807785 0.69554798 4.80411173 1.89740194 6.93359375 4.4140625 C8.05698329 8.27571404 8.33966615 10.42144109 6.80859375 14.1640625 C4.64943949 16.75504762 3.05254564 18.10845473 -0.06640625 19.4140625 C-4.00018341 19.4140625 -5.73768849 18.64988176 -8.94140625 16.3515625 C-11.33138696 13.04776564 -11.82988412 11.33817607 -11.54296875 7.3515625 C-10.06571572 1.34568134 -5.60591179 -0.4026931 0 0 Z M-4.06640625 4.4140625 C-5.73487359 6.10902206 -5.73487359 6.10902206 -7.06640625 8.4140625 C-6.84442812 11.1125214 -6.84442812 11.1125214 -6.06640625 13.4140625 C-2.66319691 14.09079697 -2.66319691 14.09079697 0.93359375 14.4140625 C1.59359375 13.7540625 2.25359375 13.0940625 2.93359375 12.4140625 C2.61032822 8.81727184 2.61032822 8.81727184 1.93359375 5.4140625 C-1.03640625 4.9190625 -1.03640625 4.9190625 -4.06640625 4.4140625 Z " fill="#FFFFFF" transform="translate(112.06640625,59.5859375)"/>
<path d="M0 0 C9 0 9 0 11.625 1.375 C13.51759911 4.98814375 12.87209759 7.62630492 12.1640625 11.5625 C11.97623867 14.35302547 12.55304623 15.65006004 14 18 C11.8125 18.3125 11.8125 18.3125 9 18 C6.1875 15.5 6.1875 15.5 4 13 C4 14.65 4 16.3 4 18 C2.68 18 1.36 18 0 18 C0 12.06 0 6.12 0 0 Z M4 4 C4 5.65 4 7.3 4 9 C5.32 8.67 6.64 8.34 8 8 C7.67 6.68 7.34 5.36 7 4 C6.01 4 5.02 4 4 4 Z " fill="#FFFFFF" transform="translate(190,60)"/>
<path d="M0 0 C1.65 0 3.3 0 5 0 C5 6.27 5 12.54 5 19 C8.96 19 12.92 19 17 19 C17 20.65 17 22.3 17 24 C11.39 24 5.78 24 0 24 C0 16.08 0 8.16 0 0 Z " fill="#FFFFFF" transform="translate(313,12)"/>
<path d="M0 0 C4.29 0 8.58 0 13 0 C13 1.32 13 2.64 13 4 C10.03 4 7.06 4 4 4 C4 4.99 4 5.98 4 7 C6.64 7 9.28 7 12 7 C12 8.32 12 9.64 12 11 C9.36 11 6.72 11 4 11 C4 11.99 4 12.98 4 14 C6.97 14 9.94 14 13 14 C13 15.32 13 16.64 13 18 C8.71 18 4.42 18 0 18 C0 12.06 0 6.12 0 0 Z " fill="#FFFFFF" transform="translate(206,60)"/>
<path d="M0 0 C0.66 0.33 1.32 0.66 2 1 C1.67 2.32 1.34 3.64 1 5 C-1.97 4.505 -1.97 4.505 -5 4 C-3.33705466 5.7460926 -1.89416782 7.06349931 0.1875 8.3125 C2 10 2 10 2.5 13 C2 16 2 16 0.4375 17.9375 C-3.02409525 19.44640049 -5.38547801 18.8701627 -9 18 C-9.66 17.34 -10.32 16.68 -11 16 C-9.75 14.4375 -9.75 14.4375 -8 13 C-5.8125 13.3125 -5.8125 13.3125 -4 14 C-4 13.34 -4 12.68 -4 12 C-4.804375 11.5875 -5.60875 11.175 -6.4375 10.75 C-9 9 -9 9 -10 6 C-10 3 -10 3 -9 1.125 C-5.98059311 -0.57341637 -3.39373504 -0.24681709 0 0 Z " fill="#FFFFFF" transform="translate(97,60)"/>
<path d="M0 0 C3.96 0 7.92 0 12 0 C12 1.32 12 2.64 12 4 C9.69 4 7.38 4 5 4 C5 4.99 5 5.98 5 7 C6.98 7 8.96 7 11 7 C11 8.65 11 10.3 11 12 C9.02 12 7.04 12 5 12 C5 13.98 5 15.96 5 18 C3.35 18 1.7 18 0 18 C0 12.06 0 6.12 0 0 Z " fill="#FFFFFF" transform="translate(122,60)"/>
<path d="M0 0 C2.84857581 3.39604984 4.50580891 7.13067976 6.1875 11.1875 C6.59645508 12.14946289 6.59645508 12.14946289 7.01367188 13.13085938 C9 17.84527726 9 17.84527726 9 19 C7.35 19 5.7 19 4 19 C3.67 18.01 3.34 17.02 3 16 C1.02 16 -0.96 16 -3 16 C-3.33 16.99 -3.66 17.98 -4 19 C-5.32 19 -6.64 19 -8 19 C-6.60121198 14.53202662 -4.86369228 10.36177921 -2.875 6.125 C-2.33617187 4.97257812 -1.79734375 3.82015625 -1.2421875 2.6328125 C-0.62730469 1.32957031 -0.62730469 1.32957031 0 0 Z M0 10 C-0.33 10.66 -0.66 11.32 -1 12 C-0.34 12 0.32 12 1 12 C0.67 11.34 0.34 10.68 0 10 Z " fill="#FFFFFF" transform="translate(179,59)"/>
<path d="M0 0 C1.65 0 3.3 0 5 0 C5 7.92 5 15.84 5 24 C3.35 24 1.7 24 0 24 C0 16.08 0 8.16 0 0 Z " fill="#FFFFFF" transform="translate(250,12)"/>
<path d="M0 0 C4.29 0 8.58 0 13 0 C13 1.32 13 2.64 13 4 C11.68 4 10.36 4 9 4 C9 8.62 9 13.24 9 18 C7.68 18 6.36 18 5 18 C5 13.38 5 8.76 5 4 C3.35 4 1.7 4 0 4 C0 2.68 0 1.36 0 0 Z " fill="#FFFFFF" transform="translate(135,60)"/>
</svg>
