<?xml version="1.0" encoding="UTF-8"?>
<svg version="1.1" xmlns="http://www.w3.org/2000/svg" width="335" height="88">
<path d="M0 0 C8.13973575 2.06442573 15.04136695 6.04136695 21 12 C22.24299344 16.29893344 22.17761035 20.6763682 22.203125 25.1171875 C22.20882507 25.89256866 22.21452515 26.66794983 22.22039795 27.46682739 C22.22981435 29.10238291 22.23636852 30.7379571 22.24023438 32.37353516 C22.2499416 34.86004064 22.28099654 37.34571933 22.3125 39.83203125 C22.31903108 41.42707847 22.32428114 43.02213154 22.328125 44.6171875 C22.3404718 45.35282928 22.3528186 46.08847107 22.36553955 46.84640503 C22.34381471 51.943212 21.39236094 55.47550978 19 60 C16.27734375 62.30078125 16.27734375 62.30078125 12.9375 64.3125 C12.02798584 64.86055298 12.02798584 64.86055298 11.10009766 65.41967773 C9.78066604 66.20758398 8.45552456 66.98598956 7.12548828 67.75585938 C4.89019152 69.06427567 2.69482398 70.42802304 0.49609375 71.796875 C-7.00455246 76.35381742 -13.36384336 80.19244053 -22.421875 79.7421875 C-25.95550482 78.72493043 -28.17439073 77.36965705 -31 75 C-31.69702148 71.62426758 -31.69702148 71.62426758 -31.62109375 67.64453125 C-31.61497574 66.94228928 -31.60885773 66.2400473 -31.60255432 65.51652527 C-31.5756682 63.28037462 -31.50653085 61.04770459 -31.4375 58.8125 C-31.41597133 57.29756136 -31.39706176 55.78258309 -31.38085938 54.26757812 C-31.21218583 43.21218583 -31.21218583 43.21218583 -30 42 C-28.37742456 41.9008343 -26.75060169 41.86920223 -25.125 41.8671875 C-24.14015625 41.86589844 -23.1553125 41.86460938 -22.140625 41.86328125 C-21.10421875 41.86714844 -20.0678125 41.87101562 -19 41.875 C-17.44539063 41.86919922 -17.44539063 41.86919922 -15.859375 41.86328125 C-14.87453125 41.86457031 -13.8896875 41.86585937 -12.875 41.8671875 C-11.96492188 41.86831543 -11.05484375 41.86944336 -10.1171875 41.87060547 C-8 42 -8 42 -7 43 C-6.92686433 45.53049402 -6.90752473 48.03304837 -6.9375 50.5625 C-6.94201172 51.27341797 -6.94652344 51.98433594 -6.95117188 52.71679688 C-6.96299136 54.47790013 -6.98092737 56.23896036 -7 58 C-3.04 58 0.92 58 5 58 C4.98051547 51.32826671 4.92859914 44.65784058 4.84741211 37.98657227 C4.8243024 35.72004326 4.809853 33.45340794 4.80444336 31.18676758 C4.79510268 27.91681194 4.75399797 24.64851242 4.70703125 21.37890625 C4.7109639 20.37541641 4.71489655 19.37192657 4.71894836 18.33802795 C4.57668458 11.38300281 2.91570633 6.74669913 -1 1 C-0.67 0.67 -0.34 0.34 0 0 Z " fill="#519BC2" transform="translate(58,9)"/>
<path d="M0 0 C2.68359375 2.42260742 2.68359375 2.42260742 3.38061523 5.79833984 C3.34303101 7.76830933 3.34303101 7.76830933 3.3046875 9.77807617 C3.29856949 10.48031815 3.29245148 11.18256012 3.28614807 11.90608215 C3.25926195 14.1422328 3.1901246 16.37490283 3.12109375 18.61010742 C3.09956508 20.12504606 3.08065551 21.64002433 3.06445312 23.1550293 C2.89577958 34.21042159 2.89577958 34.21042159 1.68359375 35.42260742 C0.06101831 35.52177313 -1.56580456 35.55340519 -3.19140625 35.55541992 C-4.17625 35.55670898 -5.16109375 35.55799805 -6.17578125 35.55932617 C-7.2121875 35.55545898 -8.24859375 35.5515918 -9.31640625 35.54760742 C-10.87101562 35.5534082 -10.87101562 35.5534082 -12.45703125 35.55932617 C-13.441875 35.55803711 -14.42671875 35.55674805 -15.44140625 35.55541992 C-16.35148437 35.55429199 -17.2615625 35.55316406 -18.19921875 35.55200195 C-20.31640625 35.42260742 -20.31640625 35.42260742 -21.31640625 34.42260742 C-21.38954192 31.8921134 -21.40888152 29.38955905 -21.37890625 26.86010742 C-21.37439453 26.14918945 -21.36988281 25.43827148 -21.36523438 24.70581055 C-21.35341489 22.94470729 -21.33547888 21.18364706 -21.31640625 19.42260742 C-25.27640625 19.42260742 -29.23640625 19.42260742 -33.31640625 19.42260742 C-33.29692172 26.09434071 -33.24500539 32.76476684 -33.16381836 39.43603516 C-33.14070865 41.70256416 -33.12625925 43.96919948 -33.12084961 46.23583984 C-33.11150893 49.50579549 -33.07040422 52.774095 -33.0234375 56.04370117 C-33.02737015 57.04719101 -33.0313028 58.05068085 -33.03535461 59.08457947 C-32.89309083 66.03960461 -31.23211258 70.67590829 -27.31640625 76.42260742 C-30.31640625 77.42260742 -30.31640625 77.42260742 -33.0234375 76.38354492 C-34.04824219 75.86018555 -35.07304688 75.33682617 -36.12890625 74.79760742 C-37.65451172 74.03577148 -37.65451172 74.03577148 -39.2109375 73.25854492 C-47.85627487 68.14746497 -47.85627487 68.14746497 -48.91612244 64.17449951 C-49.19528148 61.34054516 -49.27897194 58.56336867 -49.2890625 55.71557617 C-49.30666122 54.67621414 -49.32425995 53.63685211 -49.34239197 52.56599426 C-49.36834863 50.369809 -49.37827647 48.17338377 -49.37329102 45.97705078 C-49.37887532 42.62865402 -49.47487636 39.29078707 -49.57617188 35.9440918 C-49.79090401 20.5356672 -49.79090401 20.5356672 -46.17700195 15.35668945 C-43.31731687 13.23069415 -40.58101911 11.83717857 -37.31640625 10.42260742 C-35.48373506 9.30512499 -33.66174922 8.16990618 -31.8515625 7.01635742 C-30.03181235 5.97724242 -28.20758127 4.94593449 -26.37890625 3.92260742 C-25.03022461 3.11823242 -25.03022461 3.11823242 -23.65429688 2.29760742 C-15.9618155 -2.00097091 -8.25959758 -3.92853798 0 0 Z " fill="#519BC2" transform="translate(48.31640625,1.577392578125)"/>
<path d="M0 0 C1.9375 1.5 1.9375 1.5 3 3 C1.125 6.875 1.125 6.875 0 8 C0.66 8.66 1.32 9.32 2 10 C2.4125 8.906875 2.825 7.81375 3.25 6.6875 C4.66861978 3.45801534 5.67935713 1.52570078 9 0 C14.36562589 -0.51101199 17.62352878 -0.44812884 22 3 C22.495 3.99 22.495 3.99 23 5 C23.66 3.35 24.32 1.7 25 0 C29.5206339 -0.07406517 34.040916 -0.12856045 38.56201172 -0.16479492 C40.10048574 -0.17989711 41.63891661 -0.20038046 43.17724609 -0.22631836 C45.38650141 -0.26264074 47.59518848 -0.27971119 49.8046875 -0.29296875 C50.83914505 -0.31619453 50.83914505 -0.31619453 51.89450073 -0.33988953 C53.83544922 -0.34057617 53.83544922 -0.34057617 57 0 C57.99 1.485 57.99 1.485 59 3 C59.66 2.01 60.32 1.02 61 0 C63.4375 -0.4375 63.4375 -0.4375 66 0 C67.8125 2 67.8125 2 69 4 C69.66 2.68 70.32 1.36 71 0 C72.65 0 74.3 0 76 0 C77 2 77 2 75.8203125 5.625 C75.26298335 7.08632236 74.69750804 8.54455733 74.125 10 C73.70154297 11.10601562 73.70154297 11.10601562 73.26953125 12.234375 C71.21552579 17.56894841 71.21552579 17.56894841 70 20 C67.53199953 18.84826645 65.95216435 17.95216435 64 16 C63.38125 16.66 62.7625 17.32 62.125 18 C60 20 60 20 58 20 C56.02 15.38 54.04 10.76 52 6 C50.68 6 49.36 6 48 6 C48 10.29 48 14.58 48 19 C46.35 19.33 44.7 19.66 43 20 C42 19 42 19 41.90234375 16.05859375 C41.91394531 14.86363281 41.92554688 13.66867188 41.9375 12.4375 C41.94652344 11.23996094 41.95554688 10.04242188 41.96484375 8.80859375 C41.97644531 7.88175781 41.98804688 6.95492187 42 6 C40.35 6 38.7 6 37 6 C37 7.52097602 37.02541405 9.04197618 37.0625 10.5625 C37 13 37 13 36 14 C34.33382885 14.04063832 32.66611905 14.042721 31 14 C31.020625 14.804375 31.04125 15.60875 31.0625 16.4375 C31 19 31 19 30 20 C28.33382885 20.04063832 26.66611905 20.042721 25 20 C24.34 18.35 23.68 16.7 23 15 C22.113125 15.804375 21.22625 16.60875 20.3125 17.4375 C17.56851522 19.69309405 15.66910402 21 12 21 C8.75599476 19.66423314 6.48216332 18.48216332 4 16 C3.62875 16.639375 3.2575 17.27875 2.875 17.9375 C1 20 1 20 -1.875 20.875 C-5.26407932 21.01056317 -7.09552932 20.74268241 -10 19 C-10.8125 16.875 -10.8125 16.875 -11 15 C-9.35 14.34 -7.7 13.68 -6 13 C-6.845625 12.29875 -7.69125 11.5975 -8.5625 10.875 C-11 8 -11 8 -11 4.8125 C-9.03641897 -0.71007166 -5.22473701 -0.46649438 0 0 Z M9 8 C8.7499227 10.54190002 8.7499227 10.54190002 9 13 C10.18424326 14.41577477 10.18424326 14.41577477 13.5625 14.0625 C15.2640625 14.0315625 15.2640625 14.0315625 17 14 C17.04241723 11.66705225 17.04092937 9.33297433 17 7 C15.94689723 5.72996677 15.94689723 5.72996677 13.5625 5.8125 C10.83265325 5.73160017 10.83265325 5.73160017 9 8 Z " fill="#59A0C5" transform="translate(97,59)"/>
<path d="M0 0 C82.5 0 165 0 250 0 C250 1.32 250 2.64 250 4 C167.5 4 85 4 0 4 C0 2.68 0 1.36 0 0 Z " fill="#4F9AC2" transform="translate(85,48)"/>
<path d="M0 0 C6.48292295 -0.3669579 6.48292295 -0.3669579 8.9375 1.375 C10 3 10 3 10 5 C10.66 5 11.32 5 12 5 C12.309375 4.360625 12.61875 3.72125 12.9375 3.0625 C14 1 14 1 15 0 C17.33297433 -0.04092937 19.66705225 -0.04241723 22 0 C21.57221837 2.99447142 21.10188121 4.8510967 19.375 7.375 C17.47536597 11.00157406 18.02074136 13.08296545 19 17 C19.96484286 18.68726288 20.95977816 20.35813633 22 22 C22.23187012 21.47567383 22.46374023 20.95134766 22.70263672 20.41113281 C23.75910537 18.02365093 24.81703813 15.63682055 25.875 13.25 C26.23980469 12.425 26.60460937 11.6 26.98046875 10.75 C27.33496094 9.95078125 27.68945312 9.1515625 28.0546875 8.328125 C28.37937012 7.5949707 28.70405273 6.86181641 29.03857422 6.10644531 C29.9793471 4.04524967 30.97405433 2.01995528 32 0 C37.22284422 1.87255322 38.36430104 6.14708646 40.6015625 10.8828125 C45.40343708 21.58643237 45.40343708 21.58643237 44 26 C42.02 26 40.04 26 38 26 C37.505 24.02 37.505 24.02 37 22 C34.36 22 31.72 22 29 22 C28.67 23.32 28.34 24.64 28 26 C25.91731407 26.08126087 23.83371342 26.13930839 21.75 26.1875 C20.00976562 26.23970703 20.00976562 26.23970703 18.234375 26.29296875 C14.77117245 25.97927287 13.40769094 25.46132762 11 23 C11 22.34 11 21.68 11 21 C10.34 21 9.68 21 9 21 C8.01 23.475 8.01 23.475 7 26 C5.02 26 3.04 26 1 26 C0.25 24.375 0.25 24.375 0 22 C1.32346506 19.9934562 2.65729179 17.99371825 4 16 C4.6999499 13.04465598 4.36476868 11.62182044 2.8359375 9.015625 C1.91941806 7.61268463 0.97337711 6.2284982 -0.00390625 4.8671875 C-0.33261719 4.25101563 -0.66132813 3.63484375 -1 3 C-0.67 2.01 -0.34 1.02 0 0 Z " fill="#5DA2C7" transform="translate(134,11)"/>
<path d="M0 0 C0.66 0.33 1.32 0.66 2 1 C2.02886751 5.14581887 2.04675327 9.29161216 2.0625 13.4375 C2.07087891 14.62150391 2.07925781 15.80550781 2.08789062 17.02539062 C2.09272461 18.71245117 2.09272461 18.71245117 2.09765625 20.43359375 C2.10551147 21.99678345 2.10551147 21.99678345 2.11352539 23.59155273 C2 26 2 26 1 27 C-0.66617115 27.04063832 -2.33388095 27.042721 -4 27 C-4.66 25.02 -5.32 23.04 -6 21 C-7.32 22.65 -8.64 24.3 -10 26 C-12.46800047 24.84826645 -14.04783565 23.95216435 -16 22 C-16.99 24.475 -16.99 24.475 -18 27 C-19.99954746 27.04254356 -22.00041636 27.04080783 -24 27 C-25 26 -25 26 -25.11352539 23.68334961 C-25.10828857 22.68311768 -25.10305176 21.68288574 -25.09765625 20.65234375 C-25.09443359 19.57275391 -25.09121094 18.49316406 -25.08789062 17.38085938 C-25.07951172 16.24455078 -25.07113281 15.10824219 -25.0625 13.9375 C-25.05798828 12.79732422 -25.05347656 11.65714844 -25.04882812 10.48242188 C-25.03699747 7.65489649 -25.0205141 4.8274736 -25 2 C-22 2 -22 2 -20.0625 3.86328125 C-19.381875 4.67152344 -18.70125 5.47976562 -18 6.3125 C-15.74050184 8.96997795 -13.51043515 11.57586106 -11 14 C-10.28972656 13.07316406 -9.57945312 12.14632813 -8.84765625 11.19140625 C-7.91930895 9.98174158 -6.99092145 8.77210776 -6.0625 7.5625 C-5.59392578 6.95083984 -5.12535156 6.33917969 -4.64257812 5.70898438 C-1.11328125 1.11328125 -1.11328125 1.11328125 0 0 Z " fill="#569EC4" transform="translate(284,10)"/>
<path d="M0 0 C3.24784508 1.05907992 3.99599233 1.9928487 5.703125 5.0390625 C6.21359375 6.22242187 6.7240625 7.40578125 7.25 8.625 C8.03117188 10.40777344 8.03117188 10.40777344 8.828125 12.2265625 C9.21484375 13.14179687 9.6015625 14.05703125 10 15 C10.09087891 13.50146484 10.09087891 13.50146484 10.18359375 11.97265625 C10.26738281 10.68230469 10.35117188 9.39195313 10.4375 8.0625 C10.51871094 6.77472656 10.59992188 5.48695312 10.68359375 4.16015625 C11 1 11 1 12 0 C16.21632866 -0.28108858 19.01509531 -0.39815296 22.9375 1.1875 C25.53953438 3.47413627 25.54287922 4.60968752 26 8 C26.0659735 10.10323534 26.08562245 12.20835724 26.0625 14.3125 C26.05347656 15.38113281 26.04445312 16.44976562 26.03515625 17.55078125 C26.02355469 18.35902344 26.01195312 19.16726562 26 20 C24.88625 19.835 23.7725 19.67 22.625 19.5 C18.65311477 18.9509161 18.65311477 18.9509161 14.8125 19.5 C11.50373158 20.0882255 8.35391208 20.06576298 5 20 C4.67 19.01 4.34 18.02 4 17 C2.02 17 0.04 17 -2 17 C-2.33 17.99 -2.66 18.98 -3 20 C-4.65 19.67 -6.3 19.34 -8 19 C-7.04381086 16.5824652 -6.08513489 14.16596734 -5.125 11.75 C-4.85558594 11.06808594 -4.58617187 10.38617188 -4.30859375 9.68359375 C-2.9954778 6.38479027 -1.66598286 3.13787064 0 0 Z M17 6 C17 6.99 17 7.98 17 9 C17.66 9 18.32 9 19 9 C19 8.01 19 7.02 19 6 C18.34 6 17.68 6 17 6 Z " fill="#5CA1C6" transform="translate(178,59)"/>
<path d="M0 0 C5.16318129 0.06696733 8.45947748 0.54661887 12.875 3.25 C15.93208298 6.54224321 17.16161974 9.27351754 17.5 13.6875 C17.31315064 18.2886656 15.5007662 20.68398309 12.3828125 23.9375 C9.05959536 26.8302486 6.10127658 26.38372589 1.8125 26.375 C0.54277344 26.37757812 -0.72695312 26.38015625 -2.03515625 26.3828125 C-5.125 26.25 -5.125 26.25 -6.125 25.25 C-6.22446453 23.48140807 -6.25580217 21.70888549 -6.2578125 19.9375 C-6.25910156 18.86242187 -6.26039063 17.78734375 -6.26171875 16.6796875 C-6.25591797 14.98199219 -6.25591797 14.98199219 -6.25 13.25 C-6.25386719 12.11820313 -6.25773438 10.98640625 -6.26171875 9.8203125 C-6.26042969 8.74523437 -6.25914062 7.67015625 -6.2578125 6.5625 C-6.25668457 5.56863281 -6.25555664 4.57476562 -6.25439453 3.55078125 C-6.01485255 -0.70854637 -3.75782648 0.06143586 0 0 Z M1.875 7.25 C1.875 11.21 1.875 15.17 1.875 19.25 C4.80943402 18.98343428 4.80943402 18.98343428 7.875 18.25 C10.20796251 15.42282787 10.20796251 15.42282787 9.625 12.1875 C9.1156756 9.150541 9.1156756 9.150541 6.875 7.25 C5.225 7.25 3.575 7.25 1.875 7.25 Z " fill="#59A0C5" transform="translate(186.125,10.75)"/>
<path d="M0 0 C0.79792969 0.00386719 1.59585938 0.00773438 2.41796875 0.01171875 C3.21589844 0.00785156 4.01382813 0.00398437 4.8359375 0 C10.79136108 0.01011108 10.79136108 0.01011108 11.91796875 1.13671875 C12.04296875 3.63671875 12.04296875 3.63671875 11.91796875 6.13671875 C10.91796875 7.13671875 10.91796875 7.13671875 8.6328125 7.234375 C7.25802734 7.21697266 7.25802734 7.21697266 5.85546875 7.19921875 C4.93636719 7.19019531 4.01726562 7.18117188 3.0703125 7.171875 C2.36003906 7.16027344 1.64976563 7.14867187 0.91796875 7.13671875 C0.91796875 8.12671875 0.91796875 9.11671875 0.91796875 10.13671875 C1.55605469 10.12511719 2.19414063 10.11351562 2.8515625 10.1015625 C3.67785156 10.09253906 4.50414063 10.08351563 5.35546875 10.07421875 C6.17917969 10.06261719 7.00289062 10.05101562 7.8515625 10.0390625 C9.91796875 10.13671875 9.91796875 10.13671875 10.91796875 11.13671875 C11.04296875 13.63671875 11.04296875 13.63671875 10.91796875 16.13671875 C9.91796875 17.13671875 9.91796875 17.13671875 7.8515625 17.234375 C7.02785156 17.22277344 6.20414063 17.21117188 5.35546875 17.19921875 C4.52917969 17.19019531 3.70289062 17.18117188 2.8515625 17.171875 C1.89443359 17.15447266 1.89443359 17.15447266 0.91796875 17.13671875 C0.91796875 17.79671875 0.91796875 18.45671875 0.91796875 19.13671875 C1.70042969 19.12511719 2.48289062 19.11351563 3.2890625 19.1015625 C4.30097656 19.09253906 5.31289062 19.08351563 6.35546875 19.07421875 C7.36480469 19.06261719 8.37414062 19.05101563 9.4140625 19.0390625 C11.91796875 19.13671875 11.91796875 19.13671875 12.91796875 20.13671875 C13.04296875 22.63671875 13.04296875 22.63671875 12.91796875 25.13671875 C11.39587285 26.65881465 10.03586793 26.26631396 7.91796875 26.26953125 C7.11359375 26.27082031 6.30921875 26.27210937 5.48046875 26.2734375 C4.63484375 26.26957031 3.78921875 26.26570313 2.91796875 26.26171875 C2.07234375 26.26558594 1.22671875 26.26945312 0.35546875 26.2734375 C-0.44890625 26.27214844 -1.25328125 26.27085938 -2.08203125 26.26953125 C-2.82453125 26.26840332 -3.56703125 26.26727539 -4.33203125 26.26611328 C-6.08203125 26.13671875 -6.08203125 26.13671875 -7.08203125 25.13671875 C-7.18149578 23.36812682 -7.21283342 21.59560424 -7.21484375 19.82421875 C-7.21613281 18.74914062 -7.21742187 17.6740625 -7.21875 16.56640625 C-7.21294922 14.86871094 -7.21294922 14.86871094 -7.20703125 13.13671875 C-7.21089844 12.00492188 -7.21476562 10.873125 -7.21875 9.70703125 C-7.21746094 8.63195312 -7.21617188 7.556875 -7.21484375 6.44921875 C-7.21371582 5.45535156 -7.21258789 4.46148437 -7.21142578 3.4375 C-6.9500872 -1.20939591 -3.97115743 0.0067422 0 0 Z " fill="#4F9AC2" transform="translate(120.08203125,10.86328125)"/>
<path d="M0 0 C0.79792969 0.00386719 1.59585938 0.00773438 2.41796875 0.01171875 C3.21589844 0.00785156 4.01382813 0.00398437 4.8359375 0 C10.79136108 0.01011108 10.79136108 0.01011108 11.91796875 1.13671875 C12.04296875 3.63671875 12.04296875 3.63671875 11.91796875 6.13671875 C10.91796875 7.13671875 10.91796875 7.13671875 8.4140625 7.234375 C6.90005859 7.21697266 6.90005859 7.21697266 5.35546875 7.19921875 C4.34355469 7.19019531 3.33164063 7.18117188 2.2890625 7.171875 C1.11537109 7.15447266 1.11537109 7.15447266 -0.08203125 7.13671875 C-0.08203125 8.12671875 -0.08203125 9.11671875 -0.08203125 10.13671875 C0.62824219 10.12511719 1.33851563 10.11351562 2.0703125 10.1015625 C2.98941406 10.09253906 3.90851563 10.08351563 4.85546875 10.07421875 C5.77199219 10.06261719 6.68851563 10.05101562 7.6328125 10.0390625 C9.91796875 10.13671875 9.91796875 10.13671875 10.91796875 11.13671875 C11.04296875 13.63671875 11.04296875 13.63671875 10.91796875 16.13671875 C9.91796875 17.13671875 9.91796875 17.13671875 7.6328125 17.234375 C6.25802734 17.21697266 6.25802734 17.21697266 4.85546875 17.19921875 C3.93636719 17.19019531 3.01726562 17.18117188 2.0703125 17.171875 C1.36003906 17.16027344 0.64976562 17.14867188 -0.08203125 17.13671875 C-0.08203125 17.79671875 -0.08203125 18.45671875 -0.08203125 19.13671875 C0.70042969 19.12511719 1.48289063 19.11351563 2.2890625 19.1015625 C3.30097656 19.09253906 4.31289062 19.08351563 5.35546875 19.07421875 C6.36480469 19.06261719 7.37414062 19.05101563 8.4140625 19.0390625 C10.91796875 19.13671875 10.91796875 19.13671875 11.91796875 20.13671875 C12.04296875 22.63671875 12.04296875 22.63671875 11.91796875 25.13671875 C10.03244345 27.02224405 7.34028044 26.26918564 4.8359375 26.2734375 C4.03800781 26.26957031 3.24007812 26.26570313 2.41796875 26.26171875 C1.62003906 26.26558594 0.82210937 26.26945312 0 26.2734375 C-5.95542358 26.26332642 -5.95542358 26.26332642 -7.08203125 25.13671875 C-7.18149578 23.36812682 -7.21283342 21.59560424 -7.21484375 19.82421875 C-7.21613281 18.74914062 -7.21742188 17.6740625 -7.21875 16.56640625 C-7.21294922 14.86871094 -7.21294922 14.86871094 -7.20703125 13.13671875 C-7.21089844 12.00492188 -7.21476563 10.873125 -7.21875 9.70703125 C-7.21746094 8.63195312 -7.21617187 7.556875 -7.21484375 6.44921875 C-7.21371582 5.45535156 -7.21258789 4.46148437 -7.21142578 3.4375 C-6.9500872 -1.20939591 -3.97115743 0.0067422 0 0 Z " fill="#4F9AC2" transform="translate(212.08203125,10.86328125)"/>
<path d="M0 0 C2.5 0.125 2.5 0.125 3.5 1.125 C3.57179964 2.64428038 3.58392007 4.16667482 3.5625 5.6875 C3.55347656 6.51378906 3.54445313 7.34007812 3.53515625 8.19140625 C3.51775391 9.14853516 3.51775391 9.14853516 3.5 10.125 C6.14 10.125 8.78 10.125 11.5 10.125 C11.48839844 9.48691406 11.47679688 8.84882813 11.46484375 8.19140625 C11.45582031 7.36511719 11.44679688 6.53882813 11.4375 5.6875 C11.42589844 4.86378906 11.41429688 4.04007813 11.40234375 3.19140625 C11.5 1.125 11.5 1.125 12.5 0.125 C15 0 15 0 17.5 0.125 C19.21567792 1.84067792 18.63015825 4.09872735 18.6328125 6.4375 C18.63474609 8.05011719 18.63474609 8.05011719 18.63671875 9.6953125 C18.63285156 10.82710937 18.62898438 11.95890625 18.625 13.125 C18.63080078 14.82269531 18.63080078 14.82269531 18.63671875 16.5546875 C18.63542969 17.62976563 18.63414063 18.70484375 18.6328125 19.8125 C18.63168457 20.80636719 18.63055664 21.80023438 18.62939453 22.82421875 C18.5 25.125 18.5 25.125 17.5 26.125 C15 26.25 15 26.25 12.5 26.125 C11.5 25.125 11.5 25.125 11.40234375 23.27734375 C11.45117188 20.20117188 11.45117188 20.20117188 11.5 17.125 C8.86 17.125 6.22 17.125 3.5 17.125 C3.520625 18.424375 3.54125 19.72375 3.5625 21.0625 C3.58399454 22.41665633 3.57148199 23.77256083 3.5 25.125 C2.5 26.125 2.5 26.125 0 26.25 C-2.5 26.125 -2.5 26.125 -3.5 25.125 C-3.59946453 23.35640807 -3.63080217 21.58388549 -3.6328125 19.8125 C-3.63410156 18.73742187 -3.63539062 17.66234375 -3.63671875 16.5546875 C-3.63091797 14.85699219 -3.63091797 14.85699219 -3.625 13.125 C-3.62886719 11.99320313 -3.63273437 10.86140625 -3.63671875 9.6953125 C-3.63542969 8.62023437 -3.63414063 7.54515625 -3.6328125 6.4375 C-3.63168457 5.44363281 -3.63055664 4.44976562 -3.62939453 3.42578125 C-3.4479083 0.19875054 -3.24126995 0.1620635 0 0 Z " fill="#4F9AC2" transform="translate(91.5,10.875)"/>
<path d="M0 0 C0.78246094 -0.02578125 1.56492188 -0.0515625 2.37109375 -0.078125 C5.04181509 0.32176911 5.88227439 1.19699122 7.5625 3.25 C6.9025 5.23 6.2425 7.21 5.5625 9.25 C4.92441406 9.23839844 4.28632813 9.22679687 3.62890625 9.21484375 C2.38947266 9.20130859 2.38947266 9.20130859 1.125 9.1875 C0.30128906 9.17589844 -0.52242187 9.16429687 -1.37109375 9.15234375 C-3.42913938 9.01732652 -3.42913938 9.01732652 -4.4375 10.25 C-4.50898199 11.60243917 -4.52149454 12.95834367 -4.5 14.3125 C-4.479375 15.611875 -4.45875 16.91125 -4.4375 18.25 C-3.73882812 18.21519531 -3.04015625 18.18039063 -2.3203125 18.14453125 C-1.41023437 18.11746094 -0.50015625 18.09039063 0.4375 18.0625 C1.34242188 18.02769531 2.24734375 17.99289063 3.1796875 17.95703125 C4.35917969 18.10205078 4.35917969 18.10205078 5.5625 18.25 C7.5625 21.25 7.5625 21.25 7.5625 25.25 C2.87958169 27.81805198 -1.39480505 27.52211361 -6.4375 26.25 C-9.87365111 24.12982166 -12.24467883 22.15377836 -13.4375 18.25 C-13.74285234 13.44070062 -13.92541826 9.51500273 -11.4375 5.25 C-7.60927348 1.80459613 -5.12733864 0.1010313 0 0 Z " fill="#60A3C7" transform="translate(238.4375,10.75)"/>
<path d="M0 0 C3.43324771 1.38307888 4.64290358 2.57525599 6.10546875 5.95703125 C6.44900391 6.74013672 6.79253906 7.52324219 7.14648438 8.33007812 C7.49001953 9.14927734 7.83355469 9.96847656 8.1875 10.8125 C8.54263672 11.62009766 8.89777344 12.42769531 9.26367188 13.25976562 C12.59762788 20.98416843 12.59762788 20.98416843 13 25 C12 26 12 26 8.9375 26.0625 C7.968125 26.041875 6.99875 26.02125 6 26 C5.67 24.68 5.34 23.36 5 22 C2.36 22 -0.28 22 -3 22 C-3.33 23.32 -3.66 24.64 -4 26 C-5.98 26 -7.96 26 -10 26 C-11 24 -11 24 -10.42675781 22.21582031 C-10.10545898 21.51038086 -9.78416016 20.80494141 -9.453125 20.078125 C-9.1025 19.29953125 -8.751875 18.5209375 -8.390625 17.71875 C-8.01421875 16.9040625 -7.6378125 16.089375 -7.25 15.25 C-6.8890625 14.45078125 -6.528125 13.6515625 -6.15625 12.828125 C-4.19373839 8.50491103 -2.15632245 4.23075923 0 0 Z " fill="#5AA0C5" transform="translate(298,11)"/>
<path d="M0 0 C1.79244141 0.01740234 1.79244141 0.01740234 3.62109375 0.03515625 C5.41740234 0.04869141 5.41740234 0.04869141 7.25 0.0625 C8.17683594 0.07410156 9.10367188 0.08570313 10.05859375 0.09765625 C10.68359375 2.47265625 10.68359375 2.47265625 11.05859375 5.09765625 C10.39859375 5.75765625 9.73859375 6.41765625 9.05859375 7.09765625 C9.39511744 9.6136464 9.39511744 9.6136464 10.05859375 12.09765625 C10.05859375 12.75765625 10.05859375 13.41765625 10.05859375 14.09765625 C10.24421875 14.94328125 10.42984375 15.78890625 10.62109375 16.66015625 C10.76546875 17.46453125 10.90984375 18.26890625 11.05859375 19.09765625 C10.05859375 20.09765625 10.05859375 20.09765625 7.15234375 20.23046875 C5.96640625 20.22789063 4.78046875 20.2253125 3.55859375 20.22265625 C2.37265625 20.22523437 1.18671875 20.2278125 -0.03515625 20.23046875 C-2.94140625 20.09765625 -2.94140625 20.09765625 -3.94140625 19.09765625 C-4.03977835 17.76722 -4.07219217 16.43172281 -4.07421875 15.09765625 C-4.07550781 14.29328125 -4.07679688 13.48890625 -4.078125 12.66015625 C-4.07425781 11.81453125 -4.07039062 10.96890625 -4.06640625 10.09765625 C-4.07027344 9.25203125 -4.07414063 8.40640625 -4.078125 7.53515625 C-4.07683594 6.73078125 -4.07554687 5.92640625 -4.07421875 5.09765625 C-4.07309082 4.35515625 -4.07196289 3.61265625 -4.07080078 2.84765625 C-3.84460834 -0.21148976 -3.10045453 0.10293674 0 0 Z " fill="#4F9AC2" transform="translate(208.94140625,58.90234375)"/>
<path d="M0 0 C2.5 0.125 2.5 0.125 3.5 1.125 C3.58631874 2.46767413 3.60706473 3.81474322 3.59765625 5.16015625 C3.59282227 6.37348633 3.59282227 6.37348633 3.58789062 7.61132812 C3.57951172 8.46146484 3.57113281 9.31160156 3.5625 10.1875 C3.55798828 11.04150391 3.55347656 11.89550781 3.54882812 12.77539062 C3.53700373 14.89195663 3.51906769 17.00848685 3.5 19.125 C4.28246094 19.11339844 5.06492187 19.10179688 5.87109375 19.08984375 C6.88300781 19.08082031 7.89492188 19.07179688 8.9375 19.0625 C9.94683594 19.05089844 10.95617187 19.03929688 11.99609375 19.02734375 C14.5 19.125 14.5 19.125 15.5 20.125 C15.625 22.625 15.625 22.625 15.5 25.125 C13.6144747 27.0105253 10.92231169 26.25746689 8.41796875 26.26171875 C7.62003906 26.25785156 6.82210938 26.25398438 6 26.25 C5.20207031 26.25386719 4.40414063 26.25773437 3.58203125 26.26171875 C-2.37339233 26.25160767 -2.37339233 26.25160767 -3.5 25.125 C-3.59946453 23.35640807 -3.63080217 21.58388549 -3.6328125 19.8125 C-3.63410156 18.73742187 -3.63539063 17.66234375 -3.63671875 16.5546875 C-3.63091797 14.85699219 -3.63091797 14.85699219 -3.625 13.125 C-3.62886719 11.99320313 -3.63273437 10.86140625 -3.63671875 9.6953125 C-3.63542969 8.62023437 -3.63414062 7.54515625 -3.6328125 6.4375 C-3.63168457 5.44363281 -3.63055664 4.44976562 -3.62939453 3.42578125 C-3.4479083 0.19875054 -3.24126995 0.1620635 0 0 Z " fill="#4F9AC2" transform="translate(315.5,10.875)"/>
<path d="M0 0 C1.9375 1.5 1.9375 1.5 3 3 C1.125 6.875 1.125 6.875 0 8 C0.66 8.66 1.32 9.32 2 10 C2.66 8.68 3.32 7.36 4 6 C4.34409526 11.62022252 3.86769004 15.22051659 1 20 C-2.39443275 21.25446428 -4.3184529 21.1666004 -7.8125 20.3125 C-10 19 -10 19 -10.8125 16.875 C-10.874375 16.25625 -10.93625 15.6375 -11 15 C-9.35 14.34 -7.7 13.68 -6 13 C-6.845625 12.29875 -7.69125 11.5975 -8.5625 10.875 C-11 8 -11 8 -11 4.8125 C-9.03641897 -0.71007166 -5.22473701 -0.46649438 0 0 Z " fill="#66A7C9" transform="translate(97,59)"/>
<path d="M0 0 C2.5 0.125 2.5 0.125 3.5 1.125 C3.59946453 2.89359193 3.63080217 4.66611451 3.6328125 6.4375 C3.63410156 7.51257813 3.63539063 8.58765625 3.63671875 9.6953125 C3.63285156 10.82710937 3.62898438 11.95890625 3.625 13.125 C3.62886719 14.25679687 3.63273437 15.38859375 3.63671875 16.5546875 C3.63542969 17.62976563 3.63414062 18.70484375 3.6328125 19.8125 C3.63168457 20.80636719 3.63055664 21.80023438 3.62939453 22.82421875 C3.5 25.125 3.5 25.125 2.5 26.125 C0 26.25 0 26.25 -2.5 26.125 C-4.21567792 24.40932208 -3.63015825 22.15127265 -3.6328125 19.8125 C-3.63410156 18.73742187 -3.63539063 17.66234375 -3.63671875 16.5546875 C-3.63091797 14.85699219 -3.63091797 14.85699219 -3.625 13.125 C-3.62886719 11.99320313 -3.63273438 10.86140625 -3.63671875 9.6953125 C-3.63542969 8.62023437 -3.63414062 7.54515625 -3.6328125 6.4375 C-3.63168457 5.44363281 -3.63055664 4.44976562 -3.62939453 3.42578125 C-3.4479083 0.19875054 -3.24126995 0.1620635 0 0 Z " fill="#4F9AC2" transform="translate(252.5,10.875)"/>
</svg>
