<?xml version="1.0" encoding="UTF-8"?>
<svg version="1.1" xmlns="http://www.w3.org/2000/svg" width="103" height="103">
<path d="M0 0 C2.40203132 0.89029476 3.58579498 1.91325441 5.38111877 3.73065186 C6.00145996 4.35121964 6.62180115 4.97178741 7.26094055 5.61116028 C7.91838257 6.28408615 8.57582458 6.95701202 9.25318909 7.65032959 C9.93560669 8.33699203 10.61802429 9.02365448 11.32112122 9.73112488 C13.49832605 11.92511749 15.6648669 14.1293125 17.83131409 16.33392334 C19.3058838 17.82353968 20.78113622 19.31248054 22.25709534 20.80072021 C25.87313585 24.44983142 29.47964696 28.10812713 33.08131409 31.77142334 C37.30802387 28.22625302 41.35600079 24.6089393 45.21803284 20.66204834 C46.12488831 19.74294678 47.03174377 18.82384521 47.96607971 17.87689209 C49.37662397 16.44142829 50.78547483 15.00437102 52.19190979 13.56488037 C53.57116464 12.15539854 54.95701704 10.75238232 56.34303284 9.34954834 C57.1573175 8.51842529 57.97160217 7.68730225 58.81056213 6.83099365 C62.75208133 3.2560387 65.70898203 2.32232262 71.11256409 2.44329834 C74.22448013 2.96195101 75.93199278 4.55697108 78.08131409 6.77142334 C79.66456165 9.93791847 79.72505645 13.34600528 79.08131409 16.77142334 C76.07613895 21.82677293 72.35749069 25.82590681 68.24000549 29.99847412 C67.21947586 31.04353622 67.21947586 31.04353622 66.17832947 32.10971069 C63.93596592 34.40148942 61.68558163 36.68512341 59.43287659 38.96673584 C58.65967449 39.75058529 57.8864724 40.53443474 57.08983994 41.3420372 C52.99535599 45.48985798 48.8936279 49.63037538 44.78688049 53.76605225 C41.40345184 57.17614127 38.03513892 60.600142 34.67945862 64.03753662 C30.61230717 68.20369765 26.52080207 72.34441492 22.41094589 76.46844101 C20.856414 78.03633469 19.31035092 79.61267586 17.77338028 81.19778824 C8.03532875 91.22320068 0.40716357 98.56198142 -14.31330872 98.834198 C-15.17308319 98.81348236 -16.03285767 98.79276672 -16.91868591 98.77142334 C-16.67044951 95.7429392 -16.33693564 92.77841875 -15.91868591 89.77142334 C-15.82716248 88.96318115 -15.73563904 88.15493896 -15.64134216 87.32220459 C-13.82632534 77.52711378 -7.17529725 72.1242076 -0.23118591 65.58392334 C0.96141038 64.43152874 2.15218364 63.27724436 3.34107971 62.12103271 C6.23392731 59.31559398 9.15026053 56.53689864 12.08131409 53.77142334 C8.20006521 49.10199006 4.14804805 44.74765111 -0.22727966 40.54095459 C-1.39777904 39.39766533 -2.56768466 38.25376791 -3.73704529 37.10931396 C-5.55742224 35.33245003 -7.38126877 33.55981547 -9.21531677 31.79705811 C-11.00153317 30.07712939 -12.77166971 28.34196535 -14.53977966 26.60345459 C-15.09483688 26.07734085 -15.6498941 25.55122711 -16.22177124 25.00917053 C-19.90035114 21.35704966 -19.90035114 21.35704966 -19.98460388 18.66595459 C-17.63024294 14.4813827 -13.98089449 11.32254002 -10.60618591 7.95892334 C-9.83339294 7.157771 -9.06059998 6.35661865 -8.26438904 5.53118896 C-7.51479919 4.779021 -6.76520935 4.02685303 -5.99290466 3.25189209 C-5.30800964 2.55990723 -4.62311462 1.86792236 -3.91746521 1.15496826 C-1.91868591 -0.22857666 -1.91868591 -0.22857666 0 0 Z M-0.91868591 6.77142334 C-4.87868591 10.73142334 -8.83868591 14.69142334 -12.91868591 18.77142334 C-7.39218257 25.51222759 -1.22419033 31.57853624 4.95631409 37.70892334 C6.03727682 38.7848606 7.11800792 39.86103065 8.19850159 40.93743896 C10.82344049 43.55145626 13.45150037 46.1623093 16.08131409 48.77142334 C19.15588321 47.29630176 21.42882989 45.77318705 23.89381409 43.39642334 C24.5190094 42.81118896 25.14420471 42.22595459 25.78834534 41.62298584 C27.33291791 39.86213562 27.33291791 39.86213562 26.78053284 37.73236084 C26.43441956 36.76169678 26.43441956 36.76169678 26.08131409 35.77142334 C26.08131409 34.78142334 26.08131409 33.79142334 26.08131409 32.77142334 C22.97579743 32.77142334 21.72870325 33.31079484 19.08131409 34.77142334 C19.08131409 30.77142334 19.08131409 30.77142334 21.08131409 27.77142334 C18.1275391 25.40162321 18.1275391 25.40162321 14.08131409 25.77142334 C14.08131409 24.12142334 14.08131409 22.47142334 14.08131409 20.77142334 C10.03508907 20.40162321 10.03508907 20.40162321 7.08131409 22.77142334 C6.42131409 21.78142334 5.76131409 20.79142334 5.08131409 19.77142334 C6.07131409 18.78142334 7.06131409 17.79142334 8.08131409 16.77142334 C7.75131409 15.78142334 7.42131409 14.79142334 7.08131409 13.77142334 C5.43131409 13.77142334 3.78131409 13.77142334 2.08131409 13.77142334 C2.08131409 12.45142334 2.08131409 11.13142334 2.08131409 9.77142334 C1.09131409 8.78142334 0.10131409 7.79142334 -0.91868591 6.77142334 Z M57.3901825 16.2137146 C56.74282135 16.8682663 56.09546021 17.52281799 55.42848206 18.19720459 C54.74544006 18.87995453 54.06239807 19.56270447 53.35865784 20.2661438 C51.09216918 22.53403072 48.83285495 24.80892967 46.57350159 27.08392334 C45.00737815 28.65377514 43.44081385 30.22318725 41.87382507 31.79217529 C37.74300572 35.93064502 33.61822637 40.07508494 29.49464417 44.22076416 C25.28885966 48.44697688 21.07743496 52.66756064 16.86647034 56.88861084 C8.59919751 65.17735834 0.33828973 73.47241898 -7.91868591 81.77142334 C-6.9921589 82.9468233 -6.05205204 84.11152911 -5.10618591 85.27142334 C-4.5841156 85.92111084 -4.06204529 86.57079834 -3.52415466 87.24017334 C-1.92663758 89.11651462 -1.92663758 89.11651462 1.08131409 88.77142334 C3.41438689 86.72077042 5.5822108 84.64805773 7.75587463 82.43743896 C8.42930908 81.7644426 9.10274353 81.09144623 9.79658508 80.39805603 C12.02758222 78.16496374 14.2477576 75.92142217 16.46803284 73.67767334 C18.01008833 72.1300245 19.55280616 70.58303534 21.09616089 69.03668213 C25.16179067 64.95958312 29.21833246 60.87355596 33.27308655 56.78564453 C37.41012184 52.61795329 41.55563405 48.4587132 45.70045471 44.29876709 C53.83575665 36.13126431 61.96148879 27.95431052 70.08131409 19.77142334 C68.51753909 16.44840148 66.86778258 14.20958327 64.08131409 11.77142334 C60.8759302 11.77142334 59.54032728 14.07355977 57.3901825 16.2137146 Z " fill="#002D82" transform="translate(20.918685913085938,1.22857666015625)"/>
<path d="M0 0 C2.82779011 1.29050523 4.9140819 2.65402026 7.13208008 4.82568359 C7.71560745 5.39322357 8.29913483 5.96076355 8.90034485 6.54550171 C9.51717636 7.15697052 10.13400787 7.76843933 10.76953125 8.3984375 C11.40992844 9.02980621 12.05032562 9.66117493 12.71012878 10.31167603 C14.05840931 11.64547507 15.40391793 12.98208118 16.74682617 14.32128906 C18.81043182 16.37294379 20.89195356 18.40520923 22.97460938 20.4375 C24.28239464 21.7358272 25.58907447 23.03526905 26.89453125 24.3359375 C27.52148392 24.94335785 28.14843658 25.5507782 28.79438782 26.17660522 C30.51489258 27.91552734 30.51489258 27.91552734 33 31 C32.33676279 36.61499638 27.49395139 40.01855954 23.6875 43.8125 C22.91470703 44.61365234 22.14191406 45.41480469 21.34570312 46.24023438 C20.22131836 47.36848633 20.22131836 47.36848633 19.07421875 48.51953125 C18.38932373 49.21151611 17.70442871 49.90350098 16.9987793 50.61645508 C15 52 15 52 13.07557678 51.76568604 C10.71197419 50.89374648 9.55599196 49.91899186 7.79199219 48.13256836 C7.19167175 47.53202133 6.59135132 46.9314743 5.97283936 46.31272888 C5.33727112 45.66167679 4.70170288 45.01062469 4.046875 44.33984375 C3.38665344 43.67537735 2.72643188 43.01091095 2.04620361 42.3263092 C-0.0596764 40.20364437 -2.15488328 38.07078395 -4.25 35.9375 C-5.67639232 34.49606066 -7.1034677 33.05529691 -8.53125 31.61523438 C-12.02880594 28.08461168 -15.51682565 24.54480947 -19 21 C-18.34 19.68 -17.68 18.36 -17 17 C-14 17 -14 17 -11.1809082 19.47851562 C-10.0464748 20.61342476 -8.92028209 21.75660841 -7.80078125 22.90625 C-7.20573288 23.50554321 -6.61068451 24.10483643 -5.99760437 24.72229004 C-4.09542948 26.64128092 -2.20393795 28.57043112 -0.3125 30.5 C0.97392 31.80146301 2.2610211 33.10225318 3.54882812 34.40234375 C6.70718002 37.59380369 9.85598797 40.79441498 13 44 C14.1055189 43.06409496 15.20935453 42.12620142 16.3125 41.1875 C17.23482422 40.40439453 17.23482422 40.40439453 18.17578125 39.60546875 C19.85424679 38.12827531 21.43882034 36.59960869 23 35 C22.505 34.608125 22.01 34.21625 21.5 33.8125 C19.54406857 31.44908285 19.75792027 29.98564997 20 27 C19.401875 27.33 18.80375 27.66 18.1875 28 C16 29 16 29 13 29 C12.34 28.01 11.68 27.02 11 26 C11.495 25.54625 11.99 25.0925 12.5 24.625 C14.22609337 23.12364481 14.22609337 23.12364481 14 21 C12.824375 21.0928125 12.824375 21.0928125 11.625 21.1875 C10.75875 21.125625 9.8925 21.06375 9 21 C8.34 20.01 7.68 19.02 7 18 C7.33 17.01 7.66 16.02 8 15 C7.4225 15.350625 6.845 15.70125 6.25 16.0625 C3.64198224 17.14917407 2.60582371 16.93065133 0 16 C0 12 0 12 2 9 C1.01 9 0.02 9 -1 9 C-3.1875 8 -3.1875 8 -5 7 C-3.70700306 4.11562221 -2.34058637 2.12780579 0 0 Z " fill="#002D82" transform="translate(70,51)"/>
</svg>
