<?xml version="1.0" encoding="UTF-8"?>
<svg version="1.1" xmlns="http://www.w3.org/2000/svg" width="80" height="96">
<path d="M0 0 C1 1 2 2 3 3 C5.98173371 3.86915744 5.98173371 3.86915744 9.3125 4.4375 C17.70591682 6.25204133 23.20523533 9.86829121 28 17 C31.0483345 22.99383362 31.63993209 28.30082945 31.99609375 34.94726562 C32.15863055 37.43444855 32.15863055 37.43444855 33 41 C34.64942095 42.3546092 36.31551409 43.68925106 38 45 C38.62890625 48.3125 38.62890625 48.3125 38.5625 52 C38.56378906 53.216875 38.56507812 54.43375 38.56640625 55.6875 C37.91715318 59.48451104 37.04920523 60.72022039 34 63 C33.34 63 32.68 63 32 63 C31.9175 64.19625 31.835 65.3925 31.75 66.625 C31.19149425 70.95533229 29.84803312 73.6131498 27 77 C20.88078848 81.62062911 16.27311348 82.17600697 8.8125 82.5234375 C5.64100788 83.06082922 5.11225909 83.74613695 3 86 C-0.06836824 86.68952095 -2.91503179 86.57168991 -6 86 C-9.125 83.875 -9.125 83.875 -11 81 C-10.9263784 77.24529849 -10.67158839 75.67158839 -8 73 C-5.1796875 72.8046875 -5.1796875 72.8046875 -1.875 72.875 C-0.77929688 72.89304687 0.31640625 72.91109375 1.4453125 72.9296875 C2.28835937 72.95289062 3.13140625 72.97609375 4 73 C4.66 74.32 5.32 75.64 6 77 C14.93228061 76.5982848 14.93228061 76.5982848 23 73 C23.33 72.34 23.66 71.68 24 71 C22.8553125 71.99 22.8553125 71.99 21.6875 73 C19 75 19 75 16 75 C17.72066106 69.55123997 19.84705349 64.28830549 22 59 C22.99 59 23.98 59 25 59 C24.67 57.35 24.34 55.7 24 54 C23.38125 54.20625 22.7625 54.4125 22.125 54.625 C21.42375 54.74875 20.7225 54.8725 20 55 C18 53 18 53 17.9375 49.515625 C17.95695679 48.48743652 17.95695679 48.48743652 17.97680664 47.43847656 C18.01570269 43.76832714 17.75512403 40.61875861 17 37 C14.57774665 34.53929819 12.52640394 33.4395665 9.34765625 32.140625 C6.61122239 30.81110971 6.03027149 29.80233846 5 27 C4.41734375 27.38671875 3.8346875 27.7734375 3.234375 28.171875 C-5.95305955 34.00791833 -15.12969619 37.27531308 -26 38 C-26 42.95 -26 47.9 -26 53 C-27.32 53.66 -28.64 54.32 -30 55 C-33.75 53.625 -33.75 53.625 -37 52 C-36.34689915 54.42900598 -36.34689915 54.42900598 -35 57 C-34.20851563 57.42539062 -33.41703125 57.85078125 -32.6015625 58.2890625 C-29.27773502 60.4750031 -28.56426363 62.41038496 -27.0625 66.0625 C-22.9240433 75.54294417 -18.71169067 85.14415467 -9 90 C-3.44154854 90.92836716 0.30003916 90.20583381 5 87.0625 C7.60759956 85.15673768 7.60759956 85.15673768 10 83 C11.99958364 82.95919217 14.00045254 82.95745644 16 83 C14.57646476 86.33136597 12.8664687 88.27664757 10.125 90.625 C9.10792969 91.51058594 9.10792969 91.51058594 8.0703125 92.4140625 C2.40006922 96.75768282 -3.01928419 96.84560217 -10 96 C-20.88151099 92.16165879 -26.76872082 81.12537079 -31.5625 71.40893555 C-34 66.3011199 -34 66.3011199 -34 64 C-34.763125 63.773125 -35.52625 63.54625 -36.3125 63.3125 C-39.68439721 61.6657595 -40.54704383 60.44121198 -42 57 C-42.41791045 50.8358209 -42.41791045 50.8358209 -41 48 C-40.90572289 46.02856096 -40.81669646 44.0566527 -40.76123047 42.08374023 C-40.36927819 29.34529131 -38.71186125 17.17539653 -29 8 C-20.41156478 1.49912897 -10.81701538 -1.62517355 0 0 Z M-31.375 18.9375 C-34.8341107 25.45659324 -35.28768434 31.77931804 -35.125 39 C-35.11597656 39.77472656 -35.10695313 40.54945312 -35.09765625 41.34765625 C-35.07439388 43.23190843 -35.0385364 45.11599832 -35 47 C-33.68 47.33 -32.36 47.66 -31 48 C-31 43.05 -31 38.1 -31 33 C-28.69 33 -26.38 33 -24 33 C-15.60077882 31.72926912 -5.56670867 29.61040923 0.6328125 23.3515625 C2 22 2 22 4.25 21.875 C7.78323456 23.32041414 9.64078953 25.52968846 12.23046875 28.27734375 C15.43679939 31.39873848 18.54093507 33 23 33 C23 37.95 23 42.9 23 48 C25.2440215 47.13827885 25.2440215 47.13827885 26.125 44.5625 C28.2448394 35.93172532 27.33674828 27.21354668 23.25 19.3125 C19.85241075 13.80085521 15.34791088 10.52349861 9 9 C7.60534841 8.84326773 6.20938908 8.69784757 4.8125 8.5625 C1 8 1 8 -0.5 6.4375 C-2.08084521 4.63619656 -2.08084521 4.63619656 -5.5 4.5625 C-16.53082595 5.04915409 -24.63267254 10.59830551 -31.375 18.9375 Z M30 46 C30 49.96 30 53.92 30 58 C30.99 57.67 31.98 57.34 33 57 C33 53.7 33 50.4 33 47 C32.01 46.67 31.02 46.34 30 46 Z M-5 78 C-5 78.99 -5 79.98 -5 81 C-3.02 81 -1.04 81 1 81 C1.33 80.01 1.66 79.02 2 78 C-0.31 78 -2.62 78 -5 78 Z " fill="#002D82" transform="translate(42,0)"/>
</svg>
