<?xml version="1.0" encoding="UTF-8"?>
<svg version="1.1" xmlns="http://www.w3.org/2000/svg" width="96" height="96">
<path d="M0 0 C10.58492683 7.18861218 16.08243377 16.60562387 20.625 28.375 C21.50245561 33.20100583 21.40917318 37.92234606 21.25 42.8125 C19.93 42.8125 18.61 42.8125 17.25 42.8125 C15.4627643 41.0252643 15.73772176 38.23672054 15.4375 35.8125 C13.62729229 23.57013232 8.14248996 14.95985591 -1.0625 6.75 C-11.26803756 -0.60748057 -22.37617657 -2.35461125 -34.75 -1.1875 C-45.65228226 0.83904188 -55.00173504 6.7145302 -61.6875 15.5625 C-68.84402853 26.88220138 -70.59683031 39.05892744 -68.125 52.11328125 C-65.05116281 62.69331907 -58.76282568 71.47441416 -49.4296875 77.375 C-38.83459822 83.05866305 -27.32884738 84.78089811 -15.56640625 82.08203125 C-7.12677906 79.21419677 -1.02944543 75.09194543 5.25 68.8125 C0.3 68.4825 -4.65 68.1525 -9.75 67.8125 C-9.75 63.8125 -9.75 63.8125 -8.75 62.8125 C-6.96928754 62.72523777 -5.1851686 62.70550959 -3.40234375 62.71484375 C-2.43031006 62.71734131 -1.45827637 62.71983887 -0.45678711 62.72241211 C1.40901001 62.73606812 1.40901001 62.73606812 3.3125 62.75 C7.251875 62.770625 11.19125 62.79125 15.25 62.8125 C15.25 71.0625 15.25 79.3125 15.25 87.8125 C13.93 88.1425 12.61 88.4725 11.25 88.8125 C9.30909174 86.87159174 9.85080565 83.33956098 9.6875 80.75 C9.56181641 78.81447266 9.56181641 78.81447266 9.43359375 76.83984375 C9.37300781 75.84082031 9.31242187 74.84179688 9.25 73.8125 C8.81171875 74.24820313 8.3734375 74.68390625 7.921875 75.1328125 C-3.37279526 85.73878335 -16.10005057 89.46746981 -31.234375 89.12109375 C-43.50501497 88.50449153 -54.6475473 82.43914401 -63.0625 73.625 C-73.34894757 61.26858967 -76.11953086 47.40623756 -74.75 31.8125 C-72.38480501 19.29254571 -65.13541748 8.148104 -54.75 0.8125 C-36.88475327 -9.64577351 -18.03582728 -10.60931016 0 0 Z " fill="#002D82" transform="translate(74.75,7.1875)"/>
<path d="M0 0 C1.32 0.66 2.64 1.32 4 2 C4.01981934 2.77714355 4.03963867 3.55428711 4.06005859 4.35498047 C4.15507009 7.86200691 4.26484559 11.36841794 4.375 14.875 C4.4059375 16.09832031 4.436875 17.32164063 4.46875 18.58203125 C4.50742187 19.74863281 4.54609375 20.91523437 4.5859375 22.1171875 C4.6173584 23.19597168 4.6487793 24.27475586 4.68115234 25.38623047 C4.74676322 28.15761654 4.74676322 28.15761654 7 30 C9.85633789 30.28156989 12.63730144 30.46613658 15.5 30.5625 C23.76267794 30.88133897 23.76267794 30.88133897 26 32 C26 33.32 26 34.64 26 36 C22.25586756 37.87206622 17.4565778 37.33197636 13.296875 37.4296875 C8.83943807 37.61477139 6.45199971 37.95603808 3 41 C-0.4803645 40.92897215 -2.29485909 40.61415498 -4.9375 38.3125 C-6.38550221 35.16096578 -5.929926 33.29050737 -5 30 C-4.34 29.34 -3.68 28.68 -3 28 C-2.66097002 25.31569731 -2.66097002 25.31569731 -2.65625 22.1875 C-2.62660156 21.02992187 -2.59695312 19.87234375 -2.56640625 18.6796875 C-2.54449219 17.46539063 -2.52257813 16.25109375 -2.5 15 C-2.45675992 12.60399075 -2.40510759 10.20811376 -2.34375 7.8125 C-2.32505859 6.74644531 -2.30636719 5.68039063 -2.28710938 4.58203125 C-2 2 -2 2 0 0 Z " fill="#002E82" transform="translate(47,14)"/>
</svg>
